M48
; DRILL file KiCad 10.0.2 date 2026-05-16T20:04:31
; FORMAT={-:-/ absolute / metric / decimal}
; #@! TF.CreationDate,2026-05-16T20:04:31+02:00
; #@! TF.GenerationSoftware,Kicad,Pcbnew,10.0.2
; #@! TF.FileFunction,NonPlated,1,6,NPTH
FMAT,2
METRIC
; #@! TA.AperFunction,NonPlated,NPTH,ComponentDrill
T1C0.500
%
G90
G05
T1
X117.25Y-102.55
X117.25Y-103.4
X117.25Y-104.25
X117.25Y-105.1
X117.25Y-105.95
X117.25Y-106.8
X117.25Y-107.65
X117.25Y-108.5
X117.25Y-109.35
X117.25Y-110.2
X117.25Y-111.05
X117.25Y-112.3
X117.25Y-113.15
X117.25Y-114.0
X117.25Y-114.85
X117.25Y-115.7
X122.4Y-102.55
X122.4Y-103.4
X122.4Y-104.25
X122.4Y-105.1
X122.4Y-105.95
X122.4Y-106.8
X122.4Y-107.65
X122.4Y-108.5
X122.4Y-109.35
X122.4Y-110.2
X122.4Y-111.05
X122.4Y-112.3
X122.4Y-113.15
X122.4Y-114.0
X122.4Y-114.85
X122.4Y-115.7
X132.9Y-107.75
X132.9Y-108.6
X132.9Y-109.45
X132.9Y-110.3
X132.9Y-111.15
X132.9Y-112.35
X132.9Y-113.2
X132.9Y-114.05
X132.9Y-114.9
X132.9Y-115.75
X137.9Y-107.75
X137.9Y-108.6
X137.9Y-109.45
X137.9Y-110.3
X137.9Y-111.15
X137.9Y-112.35
X137.9Y-113.2
X137.9Y-114.05
X137.9Y-114.9
X137.9Y-115.75
X148.4Y-107.75
X148.4Y-108.6
X148.4Y-109.45
X148.4Y-110.3
X148.4Y-111.15
X148.4Y-112.35
X148.4Y-113.2
X148.4Y-114.05
X148.4Y-114.9
X148.4Y-115.75
X153.9Y-107.75
X153.9Y-108.6
X153.9Y-109.45
X153.9Y-110.3
X153.9Y-111.15
X153.9Y-112.35
X153.9Y-113.2
X153.9Y-114.05
X153.9Y-114.9
X153.9Y-115.75
M30
