%TF.GenerationSoftware,KiCad,Pcbnew,10.0.2*%
%TF.CreationDate,2026-05-16T20:04:27+02:00*%
%TF.ProjectId,OpenRX-all,4f70656e-5258-42d6-916c-6c2e6b696361,rev?*%
%TF.SameCoordinates,Original*%
%TF.FileFunction,Soldermask,Bot*%
%TF.FilePolarity,Negative*%
%FSLAX46Y46*%
G04 Gerber Fmt 4.6, Leading zero omitted, Abs format (unit mm)*
G04 Created by KiCad (PCBNEW 10.0.2) date 2026-05-16 20:04:27*
%MOMM*%
%LPD*%
G01*
G04 APERTURE LIST*
G04 Aperture macros list*
%AMRoundRect*
0 Rectangle with rounded corners*
0 $1 Rounding radius*
0 $2 $3 $4 $5 $6 $7 $8 $9 X,Y pos of 4 corners*
0 Add a 4 corners polygon primitive as box body*
4,1,4,$2,$3,$4,$5,$6,$7,$8,$9,$2,$3,0*
0 Add four circle primitives for the rounded corners*
1,1,$1+$1,$2,$3*
1,1,$1+$1,$4,$5*
1,1,$1+$1,$6,$7*
1,1,$1+$1,$8,$9*
0 Add four rect primitives between the rounded corners*
20,1,$1+$1,$2,$3,$4,$5,0*
20,1,$1+$1,$4,$5,$6,$7,0*
20,1,$1+$1,$6,$7,$8,$9,0*
20,1,$1+$1,$8,$9,$2,$3,0*%
%AMRotRect*
0 Rectangle, with rotation*
0 The origin of the aperture is its center*
0 $1 length*
0 $2 width*
0 $3 Rotation angle, in degrees counterclockwise*
0 Add horizontal line*
21,1,$1,$2,0,0,$3*%
%AMFreePoly0*
4,1,15,0.030697,0.149468,0.210697,0.009468,0.229614,-0.023798,0.230000,-0.030000,0.230000,-0.110000,0.215355,-0.145355,0.180000,-0.160000,-0.180000,-0.160000,-0.215355,-0.145355,-0.230000,-0.110000,-0.230000,0.110000,-0.215355,0.145355,-0.180000,0.160000,0.000000,0.160000,0.030697,0.149468,0.030697,0.149468,$1*%
%AMFreePoly1*
4,1,15,0.215355,0.155355,0.230000,0.120000,0.230000,0.040000,0.215355,0.004645,0.210697,0.000532,0.030697,-0.139468,0.000000,-0.150000,-0.180000,-0.150000,-0.215355,-0.135355,-0.230000,-0.100000,-0.230000,0.120000,-0.215355,0.155355,-0.180000,0.170000,0.180000,0.170000,0.215355,0.155355,0.215355,0.155355,$1*%
%AMFreePoly2*
4,1,15,0.215355,0.155355,0.230000,0.120000,0.230000,-0.100000,0.215355,-0.135355,0.180000,-0.150000,0.000000,-0.150000,-0.030697,-0.139468,-0.210697,0.000532,-0.229614,0.033798,-0.230000,0.040000,-0.230000,0.120000,-0.215355,0.155355,-0.180000,0.170000,0.180000,0.170000,0.215355,0.155355,0.215355,0.155355,$1*%
%AMFreePoly3*
4,1,15,0.215355,0.145355,0.230000,0.110000,0.230000,-0.110000,0.215355,-0.145355,0.180000,-0.160000,-0.180000,-0.160000,-0.215355,-0.145355,-0.230000,-0.110000,-0.230000,-0.030000,-0.215355,0.005355,-0.210697,0.009468,-0.030697,0.149468,0.000000,0.160000,0.180000,0.160000,0.215355,0.145355,0.215355,0.145355,$1*%
G04 Aperture macros list end*
%ADD10C,0.250000*%
%ADD11C,0.125000*%
%ADD12C,0.500000*%
%ADD13C,0.600000*%
%ADD14RoundRect,0.475000X-0.475000X-1.275000X0.475000X-1.275000X0.475000X1.275000X-0.475000X1.275000X0*%
%ADD15RoundRect,0.475000X-0.475000X-0.775000X0.475000X-0.775000X0.475000X0.775000X-0.475000X0.775000X0*%
%ADD16RoundRect,0.100000X0.130000X0.100000X-0.130000X0.100000X-0.130000X-0.100000X0.130000X-0.100000X0*%
%ADD17RoundRect,0.100000X-0.130000X-0.100000X0.130000X-0.100000X0.130000X0.100000X-0.130000X0.100000X0*%
%ADD18RoundRect,0.100000X-0.100000X0.130000X-0.100000X-0.130000X0.100000X-0.130000X0.100000X0.130000X0*%
%ADD19RoundRect,0.100000X0.100000X-0.130000X0.100000X0.130000X-0.100000X0.130000X-0.100000X-0.130000X0*%
%ADD20R,0.730000X0.600000*%
%ADD21FreePoly0,180.000000*%
%ADD22FreePoly1,180.000000*%
%ADD23FreePoly2,180.000000*%
%ADD24FreePoly3,180.000000*%
%ADD25RotRect,0.480000X0.480000X135.000000*%
%ADD26RoundRect,0.168750X0.431250X-0.168750X0.431250X0.168750X-0.431250X0.168750X-0.431250X-0.168750X0*%
%ADD27RoundRect,0.062500X0.337500X0.062500X-0.337500X0.062500X-0.337500X-0.062500X0.337500X-0.062500X0*%
%ADD28RoundRect,0.062500X0.312500X0.062500X-0.312500X0.062500X-0.312500X-0.062500X0.312500X-0.062500X0*%
%ADD29RoundRect,0.062500X0.062500X0.337500X-0.062500X0.337500X-0.062500X-0.337500X0.062500X-0.337500X0*%
%ADD30R,2.800000X2.800000*%
%ADD31R,0.700000X0.900000*%
%ADD32RoundRect,0.062500X0.062500X-0.337500X0.062500X0.337500X-0.062500X0.337500X-0.062500X-0.337500X0*%
%ADD33RoundRect,0.062500X0.337500X-0.062500X0.337500X0.062500X-0.337500X0.062500X-0.337500X-0.062500X0*%
%ADD34R,2.700000X2.700000*%
%ADD35RoundRect,0.218750X0.218750X0.256250X-0.218750X0.256250X-0.218750X-0.256250X0.218750X-0.256250X0*%
%ADD36RoundRect,0.140000X-0.140000X-0.170000X0.140000X-0.170000X0.140000X0.170000X-0.140000X0.170000X0*%
%ADD37R,0.550000X0.680000*%
%ADD38FreePoly0,270.000000*%
%ADD39FreePoly1,270.000000*%
%ADD40FreePoly2,270.000000*%
%ADD41FreePoly3,270.000000*%
%ADD42RotRect,0.480000X0.480000X225.000000*%
%ADD43R,3.000000X3.000000*%
%ADD44R,0.420000X0.600000*%
%ADD45RoundRect,0.250000X0.275000X0.250000X-0.275000X0.250000X-0.275000X-0.250000X0.275000X-0.250000X0*%
%ADD46RoundRect,0.250000X0.850000X0.275000X-0.850000X0.275000X-0.850000X-0.275000X0.850000X-0.275000X0*%
%ADD47R,0.450000X0.450000*%
%ADD48R,1.750000X1.000000*%
%ADD49RoundRect,0.250000X0.250000X0.250000X-0.250000X0.250000X-0.250000X-0.250000X0.250000X-0.250000X0*%
%ADD50R,1.000000X1.750000*%
%ADD51RoundRect,0.225000X0.225000X0.275000X-0.225000X0.275000X-0.225000X-0.275000X0.225000X-0.275000X0*%
G04 APERTURE END LIST*
D10*
G36*
X140884531Y-109324242D02*
G01*
X140913510Y-109340797D01*
X140936308Y-109365078D01*
X140949989Y-109394494D01*
X140954787Y-109430678D01*
X140954787Y-109695987D01*
X139970000Y-109900724D01*
X139970000Y-109736531D01*
X140380327Y-109651229D01*
X140380327Y-109635293D01*
X139970000Y-109629370D01*
X139970000Y-109560371D01*
X140548183Y-109560371D01*
X140548183Y-109616364D01*
X140786931Y-109566660D01*
X140786931Y-109509874D01*
X140781374Y-109497418D01*
X140767147Y-109494181D01*
X140570226Y-109535092D01*
X140554656Y-109544862D01*
X140548183Y-109560371D01*
X139970000Y-109560371D01*
X139970000Y-109461086D01*
X140403836Y-109466948D01*
X140421482Y-109443379D01*
X140451321Y-109413744D01*
X140484089Y-109393348D01*
X140520462Y-109381280D01*
X140812637Y-109320525D01*
X140851498Y-109317331D01*
X140884531Y-109324242D01*
G37*
G36*
X140603382Y-108860737D02*
G01*
X140566138Y-108873007D01*
X140532979Y-108893518D01*
X140503182Y-108923080D01*
X140463920Y-108969792D01*
X140424658Y-108939689D01*
X140395485Y-108922867D01*
X140362236Y-108915818D01*
X140323114Y-108918989D01*
X139970000Y-108992384D01*
X139970000Y-109156638D01*
X140364452Y-109074633D01*
X140375443Y-109077198D01*
X140380327Y-109086967D01*
X140380327Y-109131481D01*
X140375137Y-109144548D01*
X140363536Y-109151386D01*
X139970000Y-109233208D01*
X139970000Y-109397400D01*
X140323968Y-109323822D01*
X140361601Y-109311585D01*
X140395005Y-109291455D01*
X140424902Y-109262761D01*
X140464530Y-109215928D01*
X140503487Y-109246092D01*
X140532366Y-109262164D01*
X140565367Y-109268828D01*
X140604237Y-109265570D01*
X140954787Y-109192663D01*
X140954787Y-109028471D01*
X140565280Y-109109438D01*
X140552946Y-109107850D01*
X140548183Y-109097409D01*
X140548183Y-109052896D01*
X140553312Y-109040500D01*
X140566135Y-109032684D01*
X140954787Y-108951901D01*
X140954787Y-108787648D01*
X140603382Y-108860737D01*
G37*
G36*
X156884531Y-109324242D02*
G01*
X156913510Y-109340797D01*
X156936308Y-109365078D01*
X156949989Y-109394494D01*
X156954787Y-109430678D01*
X156954787Y-109695987D01*
X155970000Y-109900724D01*
X155970000Y-109736531D01*
X156380327Y-109651229D01*
X156380327Y-109635293D01*
X155970000Y-109629370D01*
X155970000Y-109560371D01*
X156548183Y-109560371D01*
X156548183Y-109616364D01*
X156786931Y-109566660D01*
X156786931Y-109509874D01*
X156781374Y-109497418D01*
X156767147Y-109494181D01*
X156570226Y-109535092D01*
X156554656Y-109544862D01*
X156548183Y-109560371D01*
X155970000Y-109560371D01*
X155970000Y-109461086D01*
X156403836Y-109466948D01*
X156421482Y-109443379D01*
X156451321Y-109413744D01*
X156484089Y-109393348D01*
X156520462Y-109381280D01*
X156812637Y-109320525D01*
X156851498Y-109317331D01*
X156884531Y-109324242D01*
G37*
G36*
X156603382Y-108860737D02*
G01*
X156566138Y-108873007D01*
X156532979Y-108893518D01*
X156503182Y-108923080D01*
X156463920Y-108969792D01*
X156424658Y-108939689D01*
X156395485Y-108922867D01*
X156362236Y-108915818D01*
X156323114Y-108918989D01*
X155970000Y-108992384D01*
X155970000Y-109156638D01*
X156364452Y-109074633D01*
X156375443Y-109077198D01*
X156380327Y-109086967D01*
X156380327Y-109131481D01*
X156375137Y-109144548D01*
X156363536Y-109151386D01*
X155970000Y-109233208D01*
X155970000Y-109397400D01*
X156323968Y-109323822D01*
X156361601Y-109311585D01*
X156395005Y-109291455D01*
X156424902Y-109262761D01*
X156464530Y-109215928D01*
X156503487Y-109246092D01*
X156532366Y-109262164D01*
X156565367Y-109268828D01*
X156604237Y-109265570D01*
X156954787Y-109192663D01*
X156954787Y-109028471D01*
X156565280Y-109109438D01*
X156552946Y-109107850D01*
X156548183Y-109097409D01*
X156548183Y-109052896D01*
X156553312Y-109040500D01*
X156566135Y-109032684D01*
X156954787Y-108951901D01*
X156954787Y-108787648D01*
X156603382Y-108860737D01*
G37*
D11*
G36*
X126425444Y-103595000D02*
G01*
X126185109Y-103595000D01*
X126057157Y-102979508D01*
X126027939Y-102979508D01*
X126019055Y-103595000D01*
X125772492Y-103595000D01*
X125781284Y-102945619D01*
X125744831Y-102918416D01*
X125700861Y-102874131D01*
X125670598Y-102825523D01*
X125652691Y-102771596D01*
X125573217Y-102389404D01*
X125816263Y-102389404D01*
X125816364Y-102402850D01*
X125877730Y-102698231D01*
X125893392Y-102723236D01*
X125918488Y-102733586D01*
X126006049Y-102733586D01*
X125930303Y-102369603D01*
X125842742Y-102369603D01*
X125821768Y-102379036D01*
X125816263Y-102389404D01*
X125573217Y-102389404D01*
X125561557Y-102333333D01*
X125556816Y-102275928D01*
X125566972Y-102227192D01*
X125591325Y-102184497D01*
X125627130Y-102150914D01*
X125670533Y-102130752D01*
X125723948Y-102123681D01*
X126119530Y-102123681D01*
X126425444Y-103595000D01*
G37*
G36*
X124871877Y-102647215D02*
G01*
X124890087Y-102702449D01*
X124920522Y-102751644D01*
X124964384Y-102795867D01*
X125036649Y-102856592D01*
X124989754Y-102917775D01*
X124964950Y-102960768D01*
X124954558Y-103009828D01*
X124959255Y-103067618D01*
X125068889Y-103595000D01*
X125309316Y-103595000D01*
X125187042Y-103006893D01*
X125191438Y-102987934D01*
X125208382Y-102979508D01*
X125275152Y-102979508D01*
X125296676Y-102988025D01*
X125307850Y-103006985D01*
X125430124Y-103595000D01*
X125670459Y-103595000D01*
X125560825Y-103067618D01*
X125542651Y-103011747D01*
X125512759Y-102962158D01*
X125470150Y-102917775D01*
X125397793Y-102856592D01*
X125444779Y-102795867D01*
X125468459Y-102753314D01*
X125478273Y-102704627D01*
X125473447Y-102647215D01*
X125364545Y-102123681D01*
X125124210Y-102123681D01*
X125244927Y-102704368D01*
X125242088Y-102725251D01*
X125224044Y-102733586D01*
X125157274Y-102733586D01*
X125136850Y-102725251D01*
X125124118Y-102704368D01*
X125003401Y-102123681D01*
X124762975Y-102123681D01*
X124871877Y-102647215D01*
G37*
D12*
%TO.C,REF\u002A\u002A*%
X122400000Y-111050000D03*
X122400000Y-110200000D03*
X122400000Y-109350000D03*
X122400000Y-108500000D03*
X122400000Y-107650000D03*
X122400000Y-106800000D03*
X122400000Y-105950000D03*
X122400000Y-105100000D03*
X122400000Y-104250000D03*
X122400000Y-103400000D03*
X122400000Y-102550000D03*
%TD*%
D13*
%TO.C,TP3*%
X105880000Y-116300000D03*
X105880000Y-117700000D03*
D14*
X106380000Y-117000000D03*
D13*
X106880000Y-116300000D03*
X106880000Y-117700000D03*
%TD*%
D12*
%TO.C,REF\u002A\u002A*%
X148400000Y-115750000D03*
X148400000Y-114900000D03*
X148400000Y-114050000D03*
X148400000Y-113200000D03*
X148400000Y-112350000D03*
%TD*%
D13*
%TO.C,TP16*%
X159920000Y-116300000D03*
X159920000Y-117700000D03*
D15*
X160420000Y-117000000D03*
D13*
X160920000Y-116300000D03*
X160920000Y-117700000D03*
%TD*%
%TO.C,TP10*%
X141374048Y-116300000D03*
X141374048Y-117700000D03*
D15*
X141874048Y-117000000D03*
D13*
X142374048Y-116300000D03*
X142374048Y-117700000D03*
%TD*%
%TO.C,TP12*%
X146460000Y-116300000D03*
X146460000Y-117700000D03*
D15*
X146960000Y-117000000D03*
D13*
X147460000Y-116300000D03*
X147460000Y-117700000D03*
%TD*%
%TO.C,TP15*%
X157374048Y-116300000D03*
X157374048Y-117700000D03*
D15*
X157874048Y-117000000D03*
D13*
X158374048Y-116300000D03*
X158374048Y-117700000D03*
%TD*%
D12*
%TO.C,REF\u002A\u002A*%
X132900000Y-111150000D03*
X132900000Y-110300000D03*
X132900000Y-109450000D03*
X132900000Y-108600000D03*
X132900000Y-107750000D03*
%TD*%
D13*
%TO.C,TP20*%
X125880000Y-116300000D03*
X125880000Y-117700000D03*
D15*
X126380000Y-117000000D03*
D13*
X126880000Y-116300000D03*
X126880000Y-117700000D03*
%TD*%
%TO.C,TP9*%
X138834048Y-116300000D03*
X138834048Y-117700000D03*
D15*
X139334048Y-117000000D03*
D13*
X139834048Y-116300000D03*
X139834048Y-117700000D03*
%TD*%
%TO.C,TP17*%
X162460000Y-116300000D03*
X162460000Y-117700000D03*
D15*
X162960000Y-117000000D03*
D13*
X163460000Y-116300000D03*
X163460000Y-117700000D03*
%TD*%
%TO.C,TP14*%
X154834048Y-116300000D03*
X154834048Y-117700000D03*
D15*
X155334048Y-117000000D03*
D13*
X155834048Y-116300000D03*
X155834048Y-117700000D03*
%TD*%
%TO.C,TP21*%
X128420000Y-116300000D03*
X128420000Y-117700000D03*
D15*
X128920000Y-117000000D03*
D13*
X129420000Y-116300000D03*
X129420000Y-117700000D03*
%TD*%
D12*
%TO.C,REF\u002A\u002A*%
X153900000Y-111150000D03*
X153900000Y-110300000D03*
X153900000Y-109450000D03*
X153900000Y-108600000D03*
X153900000Y-107750000D03*
%TD*%
D13*
%TO.C,TP1*%
X100800000Y-116300000D03*
X100800000Y-117700000D03*
D14*
X101300000Y-117000000D03*
D13*
X101800000Y-116300000D03*
X101800000Y-117700000D03*
%TD*%
%TO.C,TP22*%
X130960000Y-116300000D03*
X130960000Y-117700000D03*
D15*
X131460000Y-117000000D03*
D13*
X131960000Y-116300000D03*
X131960000Y-117700000D03*
%TD*%
D12*
%TO.C,REF\u002A\u002A*%
X153900000Y-115750000D03*
X153900000Y-114900000D03*
X153900000Y-114050000D03*
X153900000Y-113200000D03*
X153900000Y-112350000D03*
%TD*%
D13*
%TO.C,TP11*%
X143920000Y-116300000D03*
X143920000Y-117700000D03*
D15*
X144420000Y-117000000D03*
D13*
X144920000Y-116300000D03*
X144920000Y-117700000D03*
%TD*%
%TO.C,TP2*%
X103340000Y-116300000D03*
X103340000Y-117700000D03*
D14*
X103840000Y-117000000D03*
D13*
X104340000Y-116300000D03*
X104340000Y-117700000D03*
%TD*%
D12*
%TO.C,REF\u002A\u002A*%
X137900000Y-115750000D03*
X137900000Y-114900000D03*
X137900000Y-114050000D03*
X137900000Y-113200000D03*
X137900000Y-112350000D03*
%TD*%
D13*
%TO.C,TP4*%
X108420000Y-116300000D03*
X108420000Y-117700000D03*
D14*
X108920000Y-117000000D03*
D13*
X109420000Y-116300000D03*
X109420000Y-117700000D03*
%TD*%
D12*
%TO.C,REF\u002A\u002A*%
X148400000Y-111150000D03*
X148400000Y-110300000D03*
X148400000Y-109450000D03*
X148400000Y-108600000D03*
X148400000Y-107750000D03*
%TD*%
%TO.C,REF\u002A\u002A*%
X122400000Y-115700000D03*
X122400000Y-114850000D03*
X122400000Y-114000000D03*
X122400000Y-113150000D03*
X122400000Y-112300000D03*
%TD*%
%TO.C,REF\u002A\u002A*%
X117250000Y-115700000D03*
X117250000Y-114850000D03*
X117250000Y-114000000D03*
X117250000Y-113150000D03*
X117250000Y-112300000D03*
%TD*%
%TO.C,REF\u002A\u002A*%
X117250000Y-111050000D03*
X117250000Y-110200000D03*
X117250000Y-109350000D03*
X117250000Y-108500000D03*
X117250000Y-107650000D03*
X117250000Y-106800000D03*
X117250000Y-105950000D03*
X117250000Y-105100000D03*
X117250000Y-104250000D03*
X117250000Y-103400000D03*
X117250000Y-102550000D03*
%TD*%
D13*
%TO.C,TP19*%
X123340000Y-116300000D03*
X123340000Y-117700000D03*
D15*
X123840000Y-117000000D03*
D13*
X124340000Y-116300000D03*
X124340000Y-117700000D03*
%TD*%
D12*
%TO.C,REF\u002A\u002A*%
X132900000Y-115750000D03*
X132900000Y-114900000D03*
X132900000Y-114050000D03*
X132900000Y-113200000D03*
X132900000Y-112350000D03*
%TD*%
%TO.C,REF\u002A\u002A*%
X137900000Y-111150000D03*
X137900000Y-110300000D03*
X137900000Y-109450000D03*
X137900000Y-108600000D03*
X137900000Y-107750000D03*
%TD*%
D16*
%TO.C,C129*%
X160670000Y-113000000D03*
X160030000Y-113000000D03*
%TD*%
D17*
%TO.C,R34*%
X123780000Y-110700000D03*
X124420000Y-110700000D03*
%TD*%
D18*
%TO.C,C5*%
X105500000Y-111880000D03*
X105500000Y-112520000D03*
%TD*%
D17*
%TO.C,C21*%
X105650000Y-106000000D03*
X106290000Y-106000000D03*
%TD*%
%TO.C,C165*%
X131580000Y-105850000D03*
X132220000Y-105850000D03*
%TD*%
D19*
%TO.C,C30*%
X111350000Y-116270000D03*
X111350000Y-115630000D03*
%TD*%
D17*
%TO.C,C40*%
X113730000Y-106300000D03*
X114370000Y-106300000D03*
%TD*%
D20*
%TO.C,X5*%
X126650000Y-104950000D03*
X127750000Y-104950000D03*
X127750000Y-105750000D03*
X126650000Y-105750000D03*
%TD*%
D17*
%TO.C,C35*%
X112430000Y-110900000D03*
X113070000Y-110900000D03*
%TD*%
D18*
%TO.C,L26*%
X131100000Y-104480000D03*
X131100000Y-105120000D03*
%TD*%
D21*
%TO.C,U20*%
X139530000Y-107630000D03*
D22*
X139530000Y-108270000D03*
D23*
X138670000Y-108270000D03*
D24*
X138670000Y-107630000D03*
D25*
X139100000Y-107950000D03*
%TD*%
D26*
%TO.C,L18*%
X142750000Y-115062500D03*
X142750000Y-113137500D03*
%TD*%
D16*
%TO.C,C101*%
X141970000Y-112300000D03*
X141330000Y-112300000D03*
%TD*%
D17*
%TO.C,C135*%
X154780000Y-110450000D03*
X155420000Y-110450000D03*
%TD*%
D27*
%TO.C,U25*%
X132050000Y-107550000D03*
X132050000Y-108050000D03*
X132050000Y-108550000D03*
D28*
X132075000Y-109050000D03*
D27*
X132050000Y-109550000D03*
X132050000Y-110050000D03*
X132050000Y-110550000D03*
X132050000Y-111050000D03*
D29*
X131350000Y-111750000D03*
X130850000Y-111750000D03*
X130350000Y-111750000D03*
X129850000Y-111750000D03*
X129350000Y-111750000D03*
X128850000Y-111750000D03*
X128350000Y-111750000D03*
X127850000Y-111750000D03*
D27*
X127150000Y-111050000D03*
X127150000Y-110550000D03*
X127150000Y-109550000D03*
X127150000Y-109050000D03*
X127150000Y-108550000D03*
X127150000Y-108050000D03*
X127150000Y-107550000D03*
D29*
X127850000Y-106850000D03*
X128850000Y-106850000D03*
X129350000Y-106850000D03*
X129850000Y-106850000D03*
X130350000Y-106850000D03*
X130850000Y-106850000D03*
X131350000Y-106850000D03*
D30*
X129600000Y-109300000D03*
%TD*%
D18*
%TO.C,C121*%
X157650000Y-107080000D03*
X157650000Y-107720000D03*
%TD*%
D31*
%TO.C,OSC4*%
X156500000Y-115000000D03*
X154700000Y-115000000D03*
X154700000Y-113800000D03*
X156500000Y-113800000D03*
%TD*%
%TO.C,OSC3*%
X140500000Y-115000000D03*
X138700000Y-115000000D03*
X138700000Y-113800000D03*
X140500000Y-113800000D03*
%TD*%
D32*
%TO.C,U1*%
X110700000Y-113550000D03*
X110200000Y-113550000D03*
X109700000Y-113550000D03*
X109200000Y-113550000D03*
X108700000Y-113550000D03*
X108200000Y-113550000D03*
X107700000Y-113550000D03*
X107200000Y-113550000D03*
D33*
X106500000Y-112850000D03*
X106500000Y-112350000D03*
X106500000Y-111850000D03*
X106500000Y-111350000D03*
X106500000Y-110850000D03*
X106500000Y-110350000D03*
X106500000Y-109850000D03*
X106500000Y-109350000D03*
D32*
X107200000Y-108650000D03*
X107700000Y-108650000D03*
X108200000Y-108650000D03*
X108700000Y-108650000D03*
X109200000Y-108650000D03*
X109700000Y-108650000D03*
X110200000Y-108650000D03*
X110700000Y-108650000D03*
D33*
X111400000Y-109350000D03*
X111400000Y-109850000D03*
X111400000Y-110350000D03*
X111400000Y-110850000D03*
X111400000Y-111350000D03*
X111400000Y-111850000D03*
X111400000Y-112350000D03*
X111400000Y-112850000D03*
D34*
X108950000Y-111100000D03*
%TD*%
D17*
%TO.C,C25*%
X109280000Y-114550000D03*
X109920000Y-114550000D03*
%TD*%
%TO.C,C31*%
X105650000Y-105300000D03*
X106290000Y-105300000D03*
%TD*%
D35*
%TO.C,L6*%
X114237500Y-115150000D03*
X112662500Y-115150000D03*
%TD*%
D17*
%TO.C,C150*%
X125480000Y-110900000D03*
X126120000Y-110900000D03*
%TD*%
D36*
%TO.C,C144*%
X123220000Y-114950000D03*
X124180000Y-114950000D03*
%TD*%
D16*
%TO.C,R37*%
X126270000Y-113950000D03*
X125630000Y-113950000D03*
%TD*%
%TO.C,C44*%
X111070000Y-105000000D03*
X110430000Y-105000000D03*
%TD*%
D19*
%TO.C,C12*%
X102600000Y-107120000D03*
X102600000Y-106480000D03*
%TD*%
D17*
%TO.C,C105*%
X146830000Y-113000000D03*
X147470000Y-113000000D03*
%TD*%
D37*
%TO.C,X1*%
X113775000Y-111500000D03*
X113775000Y-110425000D03*
X114525000Y-110425000D03*
X114525000Y-111475000D03*
%TD*%
D16*
%TO.C,C3*%
X114470000Y-109650000D03*
X113830000Y-109650000D03*
%TD*%
D35*
%TO.C,L23*%
X128987500Y-114000000D03*
X127412500Y-114000000D03*
%TD*%
D17*
%TO.C,C141*%
X130780000Y-112750000D03*
X131420000Y-112750000D03*
%TD*%
D19*
%TO.C,C152*%
X129862500Y-113970000D03*
X129862500Y-113330000D03*
%TD*%
%TO.C,C127*%
X154600000Y-112820000D03*
X154600000Y-112180000D03*
%TD*%
D17*
%TO.C,R26*%
X140980000Y-108450000D03*
X141620000Y-108450000D03*
%TD*%
D38*
%TO.C,U2*%
X101330000Y-110870000D03*
D39*
X101970000Y-110870000D03*
D40*
X101970000Y-111730000D03*
D41*
X101330000Y-111730000D03*
D42*
X101650000Y-111300000D03*
%TD*%
D17*
%TO.C,C94*%
X138680000Y-106950000D03*
X139320000Y-106950000D03*
%TD*%
D19*
%TO.C,L4*%
X110650000Y-115920000D03*
X110650000Y-115280000D03*
%TD*%
%TO.C,C111*%
X141450000Y-110020000D03*
X141450000Y-109380000D03*
%TD*%
D17*
%TO.C,L20*%
X161430000Y-113000000D03*
X162070000Y-113000000D03*
%TD*%
%TO.C,R4*%
X115830000Y-106500000D03*
X116470000Y-106500000D03*
%TD*%
D18*
%TO.C,R35*%
X123900000Y-108330000D03*
X123900000Y-108970000D03*
%TD*%
D16*
%TO.C,C155*%
X126120000Y-109500000D03*
X125480000Y-109500000D03*
%TD*%
D35*
%TO.C,L1*%
X105487500Y-114000000D03*
X103912500Y-114000000D03*
%TD*%
D36*
%TO.C,C18*%
X101270000Y-109300000D03*
X102230000Y-109300000D03*
%TD*%
D16*
%TO.C,C164*%
X126270000Y-114650000D03*
X125630000Y-114650000D03*
%TD*%
%TO.C,C43*%
X112820000Y-104400000D03*
X112180000Y-104400000D03*
%TD*%
D36*
%TO.C,C154*%
X123220000Y-111650000D03*
X124180000Y-111650000D03*
%TD*%
%TO.C,C8*%
X100770000Y-112600000D03*
X101730000Y-112600000D03*
%TD*%
D19*
%TO.C,C98*%
X141350000Y-113670000D03*
X141350000Y-113030000D03*
%TD*%
D18*
%TO.C,C99*%
X140250000Y-107580000D03*
X140250000Y-108220000D03*
%TD*%
%TO.C,C128*%
X157350000Y-114430000D03*
X157350000Y-115070000D03*
%TD*%
D32*
%TO.C,U22*%
X162850000Y-112000000D03*
X162350000Y-112000000D03*
X161850000Y-112000000D03*
X161350000Y-112000000D03*
X160850000Y-112000000D03*
X160350000Y-112000000D03*
X159850000Y-112000000D03*
X159350000Y-112000000D03*
D33*
X158650000Y-111300000D03*
X158650000Y-110800000D03*
X158650000Y-110300000D03*
X158650000Y-109800000D03*
X158650000Y-109300000D03*
X158650000Y-108800000D03*
X158650000Y-108300000D03*
X158650000Y-107800000D03*
D32*
X159350000Y-107100000D03*
X159850000Y-107100000D03*
X160350000Y-107100000D03*
X160850000Y-107100000D03*
X161350000Y-107100000D03*
X161850000Y-107100000D03*
X162350000Y-107100000D03*
X162850000Y-107100000D03*
D33*
X163550000Y-107800000D03*
X163550000Y-108300000D03*
X163550000Y-108800000D03*
X163550000Y-109300000D03*
X163550000Y-109800000D03*
X163550000Y-110300000D03*
X163550000Y-110800000D03*
X163550000Y-111300000D03*
D43*
X161100000Y-109550000D03*
%TD*%
D17*
%TO.C,C167*%
X129480000Y-104050000D03*
X130120000Y-104050000D03*
%TD*%
D18*
%TO.C,R5*%
X102150000Y-113680000D03*
X102150000Y-114320000D03*
%TD*%
D17*
%TO.C,C26*%
X112430000Y-113000000D03*
X113070000Y-113000000D03*
%TD*%
D38*
%TO.C,U26*%
X123680000Y-113220000D03*
D39*
X124320000Y-113220000D03*
D40*
X124320000Y-114080000D03*
D41*
X123680000Y-114080000D03*
D42*
X124000000Y-113650000D03*
%TD*%
D19*
%TO.C,C139*%
X128600000Y-105820000D03*
X128600000Y-105180000D03*
%TD*%
D18*
%TO.C,C103*%
X141350000Y-114430000D03*
X141350000Y-115070000D03*
%TD*%
%TO.C,C142*%
X126500000Y-111830000D03*
X126500000Y-112470000D03*
%TD*%
D16*
%TO.C,C109*%
X139420000Y-111150000D03*
X138780000Y-111150000D03*
%TD*%
D18*
%TO.C,C163*%
X125800000Y-111630000D03*
X125800000Y-112270000D03*
%TD*%
%TO.C,C96*%
X141650000Y-107080000D03*
X141650000Y-107720000D03*
%TD*%
D17*
%TO.C,C4*%
X112430000Y-112300000D03*
X113070000Y-112300000D03*
%TD*%
D26*
%TO.C,L22*%
X158750000Y-115062500D03*
X158750000Y-113137500D03*
%TD*%
D16*
%TO.C,C126*%
X157970000Y-112300000D03*
X157330000Y-112300000D03*
%TD*%
D19*
%TO.C,C102*%
X138600000Y-112820000D03*
X138600000Y-112180000D03*
%TD*%
D44*
%TO.C,U9*%
X116540000Y-108370000D03*
X116540000Y-107530000D03*
X113260000Y-108370000D03*
X113260000Y-107530000D03*
%TD*%
D17*
%TO.C,C110*%
X138780000Y-110450000D03*
X139420000Y-110450000D03*
%TD*%
D32*
%TO.C,U19*%
X146850000Y-112000000D03*
X146350000Y-112000000D03*
X145850000Y-112000000D03*
X145350000Y-112000000D03*
X144850000Y-112000000D03*
X144350000Y-112000000D03*
X143850000Y-112000000D03*
X143350000Y-112000000D03*
D33*
X142650000Y-111300000D03*
X142650000Y-110800000D03*
X142650000Y-110300000D03*
X142650000Y-109800000D03*
X142650000Y-109300000D03*
X142650000Y-108800000D03*
X142650000Y-108300000D03*
X142650000Y-107800000D03*
D32*
X143350000Y-107100000D03*
X143850000Y-107100000D03*
X144350000Y-107100000D03*
X144850000Y-107100000D03*
X145350000Y-107100000D03*
X145850000Y-107100000D03*
X146350000Y-107100000D03*
X146850000Y-107100000D03*
D33*
X147550000Y-107800000D03*
X147550000Y-108300000D03*
X147550000Y-108800000D03*
X147550000Y-109300000D03*
X147550000Y-109800000D03*
X147550000Y-110300000D03*
X147550000Y-110800000D03*
X147550000Y-111300000D03*
D43*
X145100000Y-109550000D03*
%TD*%
D17*
%TO.C,C119*%
X154680000Y-106950000D03*
X155320000Y-106950000D03*
%TD*%
D16*
%TO.C,C134*%
X155420000Y-111150000D03*
X154780000Y-111150000D03*
%TD*%
D18*
%TO.C,R27*%
X140950000Y-107080000D03*
X140950000Y-107720000D03*
%TD*%
D21*
%TO.C,U23*%
X155530000Y-107630000D03*
D22*
X155530000Y-108270000D03*
D23*
X154670000Y-108270000D03*
D24*
X154670000Y-107630000D03*
D25*
X155100000Y-107950000D03*
%TD*%
D17*
%TO.C,C166*%
X130980000Y-103750000D03*
X131620000Y-103750000D03*
%TD*%
D18*
%TO.C,C124*%
X156250000Y-107580000D03*
X156250000Y-108220000D03*
%TD*%
D17*
%TO.C,C153*%
X123580000Y-112500000D03*
X124220000Y-112500000D03*
%TD*%
D19*
%TO.C,C10*%
X100700000Y-111720000D03*
X100700000Y-111080000D03*
%TD*%
%TO.C,C123*%
X157350000Y-113670000D03*
X157350000Y-113030000D03*
%TD*%
D17*
%TO.C,C17*%
X101380000Y-110150000D03*
X102020000Y-110150000D03*
%TD*%
%TO.C,C151*%
X125480000Y-110200000D03*
X126120000Y-110200000D03*
%TD*%
D45*
%TO.C,J1*%
X102825000Y-103650000D03*
D46*
X101300000Y-105125000D03*
X101300000Y-102175000D03*
%TD*%
D16*
%TO.C,C97*%
X140570000Y-112750000D03*
X139930000Y-112750000D03*
%TD*%
D18*
%TO.C,R32*%
X157450000Y-110780000D03*
X157450000Y-111420000D03*
%TD*%
D17*
%TO.C,C27*%
X107780000Y-107650000D03*
X108420000Y-107650000D03*
%TD*%
D18*
%TO.C,C28*%
X102850000Y-113680000D03*
X102850000Y-114320000D03*
%TD*%
D16*
%TO.C,C6*%
X107020000Y-107650000D03*
X106380000Y-107650000D03*
%TD*%
D17*
%TO.C,C41*%
X113730000Y-105600000D03*
X114370000Y-105600000D03*
%TD*%
D16*
%TO.C,C9*%
X107170000Y-114650000D03*
X106530000Y-114650000D03*
%TD*%
D47*
%TO.C,D1*%
X101030000Y-107170000D03*
X101870000Y-107170000D03*
X101030000Y-106330000D03*
X101870000Y-106330000D03*
%TD*%
D17*
%TO.C,C29*%
X110680000Y-114550000D03*
X111320000Y-114550000D03*
%TD*%
D18*
%TO.C,R31*%
X156950000Y-107080000D03*
X156950000Y-107720000D03*
%TD*%
D17*
%TO.C,R3*%
X104830000Y-111150000D03*
X105470000Y-111150000D03*
%TD*%
%TO.C,R36*%
X130280000Y-114950000D03*
X130920000Y-114950000D03*
%TD*%
D48*
%TO.C,AE1*%
X115900000Y-113580000D03*
X115900000Y-110420000D03*
%TD*%
D17*
%TO.C,L16*%
X145430000Y-113000000D03*
X146070000Y-113000000D03*
%TD*%
%TO.C,C36*%
X112430000Y-111600000D03*
X113070000Y-111600000D03*
%TD*%
D19*
%TO.C,C136*%
X157450000Y-110020000D03*
X157450000Y-109380000D03*
%TD*%
%TO.C,C146*%
X123050000Y-114070000D03*
X123050000Y-113430000D03*
%TD*%
D49*
%TO.C,TP23*%
X131900000Y-115050000D03*
%TD*%
D19*
%TO.C,C16*%
X104800000Y-112520000D03*
X104800000Y-111880000D03*
%TD*%
D18*
%TO.C,R2*%
X101000000Y-113830000D03*
X101000000Y-114470000D03*
%TD*%
D16*
%TO.C,C22*%
X105320000Y-103250000D03*
X104680000Y-103250000D03*
%TD*%
D50*
%TO.C,AE4*%
X160270000Y-114350000D03*
X163430000Y-114350000D03*
%TD*%
%TO.C,AE3*%
X144270000Y-114350000D03*
X147430000Y-114350000D03*
%TD*%
D18*
%TO.C,R28*%
X141450000Y-110780000D03*
X141450000Y-111420000D03*
%TD*%
D17*
%TO.C,L24*%
X127330000Y-104150000D03*
X127970000Y-104150000D03*
%TD*%
D16*
%TO.C,L2*%
X114470000Y-112950000D03*
X113830000Y-112950000D03*
%TD*%
%TO.C,C104*%
X144670000Y-113000000D03*
X144030000Y-113000000D03*
%TD*%
D48*
%TO.C,AE6*%
X123750000Y-103970000D03*
X123750000Y-107130000D03*
%TD*%
D51*
%TO.C,J2*%
X109587500Y-105000000D03*
D46*
X108137500Y-106475000D03*
X108137500Y-103525000D03*
%TD*%
D17*
%TO.C,C130*%
X162830000Y-113000000D03*
X163470000Y-113000000D03*
%TD*%
D16*
%TO.C,L3*%
X108520000Y-114550000D03*
X107880000Y-114550000D03*
%TD*%
D18*
%TO.C,C137*%
X125800000Y-104980000D03*
X125800000Y-105620000D03*
%TD*%
D17*
%TO.C,C1*%
X113830000Y-112250000D03*
X114470000Y-112250000D03*
%TD*%
%TO.C,R30*%
X156980000Y-108450000D03*
X157620000Y-108450000D03*
%TD*%
%TO.C,C157*%
X129480000Y-104750000D03*
X130120000Y-104750000D03*
%TD*%
D16*
%TO.C,C122*%
X156570000Y-112750000D03*
X155930000Y-112750000D03*
%TD*%
M02*
