%TF.GenerationSoftware,KiCad,Pcbnew,10.0.2*%
%TF.CreationDate,2026-05-16T20:04:26+02:00*%
%TF.ProjectId,OpenRX-all,4f70656e-5258-42d6-916c-6c2e6b696361,rev?*%
%TF.SameCoordinates,Original*%
%TF.FileFunction,Paste,Bot*%
%TF.FilePolarity,Positive*%
%FSLAX46Y46*%
G04 Gerber Fmt 4.6, Leading zero omitted, Abs format (unit mm)*
G04 Created by KiCad (PCBNEW 10.0.2) date 2026-05-16 20:04:26*
%MOMM*%
%LPD*%
G01*
G04 APERTURE LIST*
G04 Aperture macros list*
%AMRoundRect*
0 Rectangle with rounded corners*
0 $1 Rounding radius*
0 $2 $3 $4 $5 $6 $7 $8 $9 X,Y pos of 4 corners*
0 Add a 4 corners polygon primitive as box body*
4,1,4,$2,$3,$4,$5,$6,$7,$8,$9,$2,$3,0*
0 Add four circle primitives for the rounded corners*
1,1,$1+$1,$2,$3*
1,1,$1+$1,$4,$5*
1,1,$1+$1,$6,$7*
1,1,$1+$1,$8,$9*
0 Add four rect primitives between the rounded corners*
20,1,$1+$1,$2,$3,$4,$5,0*
20,1,$1+$1,$4,$5,$6,$7,0*
20,1,$1+$1,$6,$7,$8,$9,0*
20,1,$1+$1,$8,$9,$2,$3,0*%
%AMRotRect*
0 Rectangle, with rotation*
0 The origin of the aperture is its center*
0 $1 length*
0 $2 width*
0 $3 Rotation angle, in degrees counterclockwise*
0 Add horizontal line*
21,1,$1,$2,0,0,$3*%
%AMFreePoly0*
4,1,15,0.020663,0.130920,0.194661,-0.004411,0.209153,-0.029894,0.209200,-0.030649,0.209200,-0.105861,0.199435,-0.129435,0.175862,-0.139200,-0.175862,-0.139200,-0.199435,-0.129435,-0.209200,-0.105861,-0.209200,0.105861,-0.199435,0.129435,-0.175862,0.139200,-0.003468,0.139200,0.020663,0.130920,0.020663,0.130920,$1*%
%AMFreePoly1*
4,1,15,0.199435,0.139435,0.209200,0.115861,0.209200,0.044138,0.197979,0.017050,0.197419,0.016556,0.020663,-0.120920,-0.003468,-0.129200,-0.175862,-0.129200,-0.199435,-0.119435,-0.209200,-0.095861,-0.209200,0.115861,-0.199435,0.139435,-0.175862,0.149200,0.175862,0.149200,0.199435,0.139435,0.199435,0.139435,$1*%
%AMFreePoly2*
4,1,15,0.199435,0.139435,0.209200,0.115861,0.209200,-0.095861,0.199435,-0.119435,0.175862,-0.129200,0.003468,-0.129200,-0.020663,-0.120920,-0.194661,0.014411,-0.209153,0.039894,-0.209200,0.040649,-0.209200,0.115861,-0.199435,0.139435,-0.175862,0.149200,0.175862,0.149200,0.199435,0.139435,0.199435,0.139435,$1*%
%AMFreePoly3*
4,1,15,0.199435,0.129435,0.209200,0.105861,0.209200,-0.105861,0.199435,-0.129435,0.175862,-0.139200,-0.175862,-0.139200,-0.199435,-0.129435,-0.209200,-0.105861,-0.209200,-0.034138,-0.197979,-0.007050,-0.197419,-0.006556,-0.020663,0.130920,0.003468,0.139200,0.175862,0.139200,0.199435,0.129435,0.199435,0.129435,$1*%
G04 Aperture macros list end*
%ADD10RoundRect,0.079500X0.079500X0.100500X-0.079500X0.100500X-0.079500X-0.100500X0.079500X-0.100500X0*%
%ADD11RoundRect,0.079500X-0.079500X-0.100500X0.079500X-0.100500X0.079500X0.100500X-0.079500X0.100500X0*%
%ADD12RoundRect,0.079500X-0.100500X0.079500X-0.100500X-0.079500X0.100500X-0.079500X0.100500X0.079500X0*%
%ADD13RoundRect,0.079500X0.100500X-0.079500X0.100500X0.079500X-0.100500X0.079500X-0.100500X-0.079500X0*%
%ADD14R,0.573200X0.464000*%
%ADD15FreePoly0,180.000000*%
%ADD16FreePoly1,180.000000*%
%ADD17FreePoly2,180.000000*%
%ADD18FreePoly3,180.000000*%
%ADD19RotRect,0.363200X0.363200X135.000000*%
%ADD20RoundRect,0.131750X0.352250X-0.131750X0.352250X0.131750X-0.352250X0.131750X-0.352250X-0.131750X0*%
%ADD21RoundRect,0.167785X0.332215X0.332215X-0.332215X0.332215X-0.332215X-0.332215X0.332215X-0.332215X0*%
%ADD22RoundRect,0.042500X0.273500X0.042500X-0.273500X0.042500X-0.273500X-0.042500X0.273500X-0.042500X0*%
%ADD23RoundRect,0.042500X0.252500X0.042500X-0.252500X0.042500X-0.252500X-0.042500X0.252500X-0.042500X0*%
%ADD24RoundRect,0.042500X0.042500X0.273500X-0.042500X0.273500X-0.042500X-0.273500X0.042500X-0.273500X0*%
%ADD25R,0.548000X0.716000*%
%ADD26RoundRect,0.167785X0.332215X-0.332215X0.332215X0.332215X-0.332215X0.332215X-0.332215X-0.332215X0*%
%ADD27RoundRect,0.042500X0.042500X-0.273500X0.042500X0.273500X-0.042500X0.273500X-0.042500X-0.273500X0*%
%ADD28RoundRect,0.042500X0.273500X-0.042500X0.273500X0.042500X-0.273500X0.042500X-0.273500X-0.042500X0*%
%ADD29RoundRect,0.173750X0.173750X0.205250X-0.173750X0.205250X-0.173750X-0.205250X0.173750X-0.205250X0*%
%ADD30RoundRect,0.107600X-0.107600X-0.132800X0.107600X-0.132800X0.107600X0.132800X-0.107600X0.132800X0*%
%ADD31R,0.422000X0.531200*%
%ADD32FreePoly0,270.000000*%
%ADD33FreePoly1,270.000000*%
%ADD34FreePoly2,270.000000*%
%ADD35FreePoly3,270.000000*%
%ADD36RotRect,0.363200X0.363200X225.000000*%
%ADD37RoundRect,0.218121X0.431879X-0.431879X0.431879X0.431879X-0.431879X0.431879X-0.431879X-0.431879X0*%
%ADD38R,0.312800X0.464000*%
%ADD39RoundRect,0.200000X0.221000X0.200000X-0.221000X0.200000X-0.221000X-0.200000X0.221000X-0.200000X0*%
%ADD40RoundRect,0.200476X0.703524X0.220524X-0.703524X0.220524X-0.703524X-0.220524X0.703524X-0.220524X0*%
%ADD41R,0.338000X0.338000*%
%ADD42R,1.430000X0.800000*%
%ADD43R,0.800000X1.430000*%
%ADD44RoundRect,0.179000X0.179000X0.221000X-0.179000X0.221000X-0.179000X-0.221000X0.179000X-0.221000X0*%
G04 APERTURE END LIST*
D10*
%TO.C,C129*%
X160695000Y-113000000D03*
X160005000Y-113000000D03*
%TD*%
D11*
%TO.C,R34*%
X123755000Y-110700000D03*
X124445000Y-110700000D03*
%TD*%
D12*
%TO.C,C5*%
X105500000Y-111855000D03*
X105500000Y-112545000D03*
%TD*%
D11*
%TO.C,C21*%
X105625000Y-106000000D03*
X106315000Y-106000000D03*
%TD*%
%TO.C,C165*%
X131555000Y-105850000D03*
X132245000Y-105850000D03*
%TD*%
D13*
%TO.C,C30*%
X111350000Y-116295000D03*
X111350000Y-115605000D03*
%TD*%
D11*
%TO.C,C40*%
X113705000Y-106300000D03*
X114395000Y-106300000D03*
%TD*%
D14*
%TO.C,X5*%
X126650000Y-104950000D03*
X127750000Y-104950000D03*
X127750000Y-105750000D03*
X126650000Y-105750000D03*
%TD*%
D11*
%TO.C,C35*%
X112405000Y-110900000D03*
X113095000Y-110900000D03*
%TD*%
D12*
%TO.C,L26*%
X131100000Y-104455000D03*
X131100000Y-105145000D03*
%TD*%
D15*
%TO.C,U20*%
X139530000Y-107630000D03*
D16*
X139530000Y-108270000D03*
D17*
X138670000Y-108270000D03*
D18*
X138670000Y-107630000D03*
D19*
X139100000Y-107950000D03*
%TD*%
D20*
%TO.C,L18*%
X142750000Y-115062500D03*
X142750000Y-113137500D03*
%TD*%
D10*
%TO.C,C101*%
X141995000Y-112300000D03*
X141305000Y-112300000D03*
%TD*%
D11*
%TO.C,C135*%
X154755000Y-110450000D03*
X155445000Y-110450000D03*
%TD*%
D21*
%TO.C,U25*%
X130350000Y-110050000D03*
X130350000Y-108550000D03*
X128850000Y-110050000D03*
X128850000Y-108550000D03*
D22*
X132050000Y-107550000D03*
X132050000Y-108050000D03*
X132050000Y-108550000D03*
D23*
X132075000Y-109050000D03*
D22*
X132050000Y-109550000D03*
X132050000Y-110050000D03*
X132050000Y-110550000D03*
X132050000Y-111050000D03*
D24*
X131350000Y-111750000D03*
X130850000Y-111750000D03*
X130350000Y-111750000D03*
X129850000Y-111750000D03*
X129350000Y-111750000D03*
X128850000Y-111750000D03*
X128350000Y-111750000D03*
X127850000Y-111750000D03*
D22*
X127150000Y-111050000D03*
X127150000Y-110550000D03*
X127150000Y-109550000D03*
X127150000Y-109050000D03*
X127150000Y-108550000D03*
X127150000Y-108050000D03*
X127150000Y-107550000D03*
D24*
X127850000Y-106850000D03*
X128850000Y-106850000D03*
X129350000Y-106850000D03*
X129850000Y-106850000D03*
X130350000Y-106850000D03*
X130850000Y-106850000D03*
X131350000Y-106850000D03*
%TD*%
D12*
%TO.C,C121*%
X157650000Y-107055000D03*
X157650000Y-107745000D03*
%TD*%
D25*
%TO.C,OSC4*%
X156500000Y-115000000D03*
X154700000Y-115000000D03*
X154700000Y-113800000D03*
X156500000Y-113800000D03*
%TD*%
%TO.C,OSC3*%
X140500000Y-115000000D03*
X138700000Y-115000000D03*
X138700000Y-113800000D03*
X140500000Y-113800000D03*
%TD*%
D26*
%TO.C,U1*%
X108200000Y-111850000D03*
X109700000Y-111850000D03*
X108200000Y-110350000D03*
X109700000Y-110350000D03*
D27*
X110700000Y-113550000D03*
X110200000Y-113550000D03*
X109700000Y-113550000D03*
X109200000Y-113550000D03*
X108700000Y-113550000D03*
X108200000Y-113550000D03*
X107700000Y-113550000D03*
X107200000Y-113550000D03*
D28*
X106500000Y-112850000D03*
X106500000Y-112350000D03*
X106500000Y-111850000D03*
X106500000Y-111350000D03*
X106500000Y-110850000D03*
X106500000Y-110350000D03*
X106500000Y-109850000D03*
X106500000Y-109350000D03*
D27*
X107200000Y-108650000D03*
X107700000Y-108650000D03*
X108200000Y-108650000D03*
X108700000Y-108650000D03*
X109200000Y-108650000D03*
X109700000Y-108650000D03*
X110200000Y-108650000D03*
X110700000Y-108650000D03*
D28*
X111400000Y-109350000D03*
X111400000Y-109850000D03*
X111400000Y-110350000D03*
X111400000Y-110850000D03*
X111400000Y-111350000D03*
X111400000Y-111850000D03*
X111400000Y-112350000D03*
X111400000Y-112850000D03*
%TD*%
D11*
%TO.C,C25*%
X109255000Y-114550000D03*
X109945000Y-114550000D03*
%TD*%
%TO.C,C31*%
X105625000Y-105300000D03*
X106315000Y-105300000D03*
%TD*%
D29*
%TO.C,L6*%
X114237500Y-115150000D03*
X112662500Y-115150000D03*
%TD*%
D11*
%TO.C,C150*%
X125455000Y-110900000D03*
X126145000Y-110900000D03*
%TD*%
D30*
%TO.C,C144*%
X123220000Y-114950000D03*
X124180000Y-114950000D03*
%TD*%
D10*
%TO.C,R37*%
X126295000Y-113950000D03*
X125605000Y-113950000D03*
%TD*%
%TO.C,C44*%
X111095000Y-105000000D03*
X110405000Y-105000000D03*
%TD*%
D13*
%TO.C,C12*%
X102600000Y-107145000D03*
X102600000Y-106455000D03*
%TD*%
D11*
%TO.C,C105*%
X146805000Y-113000000D03*
X147495000Y-113000000D03*
%TD*%
D31*
%TO.C,X1*%
X113775000Y-111500000D03*
X113775000Y-110425000D03*
X114525000Y-110425000D03*
X114525000Y-111475000D03*
%TD*%
D10*
%TO.C,C3*%
X114495000Y-109650000D03*
X113805000Y-109650000D03*
%TD*%
D29*
%TO.C,L23*%
X128987500Y-114000000D03*
X127412500Y-114000000D03*
%TD*%
D11*
%TO.C,C141*%
X130755000Y-112750000D03*
X131445000Y-112750000D03*
%TD*%
D13*
%TO.C,C152*%
X129862500Y-113995000D03*
X129862500Y-113305000D03*
%TD*%
%TO.C,C127*%
X154600000Y-112845000D03*
X154600000Y-112155000D03*
%TD*%
D11*
%TO.C,R26*%
X140955000Y-108450000D03*
X141645000Y-108450000D03*
%TD*%
D32*
%TO.C,U2*%
X101330000Y-110870000D03*
D33*
X101970000Y-110870000D03*
D34*
X101970000Y-111730000D03*
D35*
X101330000Y-111730000D03*
D36*
X101650000Y-111300000D03*
%TD*%
D11*
%TO.C,C94*%
X138655000Y-106950000D03*
X139345000Y-106950000D03*
%TD*%
D13*
%TO.C,L4*%
X110650000Y-115945000D03*
X110650000Y-115255000D03*
%TD*%
%TO.C,C111*%
X141450000Y-110045000D03*
X141450000Y-109355000D03*
%TD*%
D11*
%TO.C,L20*%
X161405000Y-113000000D03*
X162095000Y-113000000D03*
%TD*%
%TO.C,R4*%
X115805000Y-106500000D03*
X116495000Y-106500000D03*
%TD*%
D12*
%TO.C,R35*%
X123900000Y-108305000D03*
X123900000Y-108995000D03*
%TD*%
D10*
%TO.C,C155*%
X126145000Y-109500000D03*
X125455000Y-109500000D03*
%TD*%
D29*
%TO.C,L1*%
X105487500Y-114000000D03*
X103912500Y-114000000D03*
%TD*%
D30*
%TO.C,C18*%
X101270000Y-109300000D03*
X102230000Y-109300000D03*
%TD*%
D10*
%TO.C,C164*%
X126295000Y-114650000D03*
X125605000Y-114650000D03*
%TD*%
%TO.C,C43*%
X112845000Y-104400000D03*
X112155000Y-104400000D03*
%TD*%
D30*
%TO.C,C154*%
X123220000Y-111650000D03*
X124180000Y-111650000D03*
%TD*%
%TO.C,C8*%
X100770000Y-112600000D03*
X101730000Y-112600000D03*
%TD*%
D13*
%TO.C,C98*%
X141350000Y-113695000D03*
X141350000Y-113005000D03*
%TD*%
D12*
%TO.C,C99*%
X140250000Y-107555000D03*
X140250000Y-108245000D03*
%TD*%
%TO.C,C128*%
X157350000Y-114405000D03*
X157350000Y-115095000D03*
%TD*%
D37*
%TO.C,U22*%
X160225000Y-110425000D03*
X161975000Y-110425000D03*
X160225000Y-108675000D03*
X161975000Y-108675000D03*
D27*
X162850000Y-112000000D03*
X162350000Y-112000000D03*
X161850000Y-112000000D03*
X161350000Y-112000000D03*
X160850000Y-112000000D03*
X160350000Y-112000000D03*
X159850000Y-112000000D03*
X159350000Y-112000000D03*
D28*
X158650000Y-111300000D03*
X158650000Y-110800000D03*
X158650000Y-110300000D03*
X158650000Y-109800000D03*
X158650000Y-109300000D03*
X158650000Y-108800000D03*
X158650000Y-108300000D03*
X158650000Y-107800000D03*
D27*
X159350000Y-107100000D03*
X159850000Y-107100000D03*
X160350000Y-107100000D03*
X160850000Y-107100000D03*
X161350000Y-107100000D03*
X161850000Y-107100000D03*
X162350000Y-107100000D03*
X162850000Y-107100000D03*
D28*
X163550000Y-107800000D03*
X163550000Y-108300000D03*
X163550000Y-108800000D03*
X163550000Y-109300000D03*
X163550000Y-109800000D03*
X163550000Y-110300000D03*
X163550000Y-110800000D03*
X163550000Y-111300000D03*
%TD*%
D11*
%TO.C,C167*%
X129455000Y-104050000D03*
X130145000Y-104050000D03*
%TD*%
D12*
%TO.C,R5*%
X102150000Y-113655000D03*
X102150000Y-114345000D03*
%TD*%
D11*
%TO.C,C26*%
X112405000Y-113000000D03*
X113095000Y-113000000D03*
%TD*%
D32*
%TO.C,U26*%
X123680000Y-113220000D03*
D33*
X124320000Y-113220000D03*
D34*
X124320000Y-114080000D03*
D35*
X123680000Y-114080000D03*
D36*
X124000000Y-113650000D03*
%TD*%
D13*
%TO.C,C139*%
X128600000Y-105845000D03*
X128600000Y-105155000D03*
%TD*%
D12*
%TO.C,C103*%
X141350000Y-114405000D03*
X141350000Y-115095000D03*
%TD*%
%TO.C,C142*%
X126500000Y-111805000D03*
X126500000Y-112495000D03*
%TD*%
D10*
%TO.C,C109*%
X139445000Y-111150000D03*
X138755000Y-111150000D03*
%TD*%
D12*
%TO.C,C163*%
X125800000Y-111605000D03*
X125800000Y-112295000D03*
%TD*%
%TO.C,C96*%
X141650000Y-107055000D03*
X141650000Y-107745000D03*
%TD*%
D11*
%TO.C,C4*%
X112405000Y-112300000D03*
X113095000Y-112300000D03*
%TD*%
D20*
%TO.C,L22*%
X158750000Y-115062500D03*
X158750000Y-113137500D03*
%TD*%
D10*
%TO.C,C126*%
X157995000Y-112300000D03*
X157305000Y-112300000D03*
%TD*%
D13*
%TO.C,C102*%
X138600000Y-112845000D03*
X138600000Y-112155000D03*
%TD*%
D38*
%TO.C,U9*%
X116540000Y-108370000D03*
X116540000Y-107530000D03*
X113260000Y-108370000D03*
X113260000Y-107530000D03*
%TD*%
D11*
%TO.C,C110*%
X138755000Y-110450000D03*
X139445000Y-110450000D03*
%TD*%
D37*
%TO.C,U19*%
X144225000Y-110425000D03*
X145975000Y-110425000D03*
X144225000Y-108675000D03*
X145975000Y-108675000D03*
D27*
X146850000Y-112000000D03*
X146350000Y-112000000D03*
X145850000Y-112000000D03*
X145350000Y-112000000D03*
X144850000Y-112000000D03*
X144350000Y-112000000D03*
X143850000Y-112000000D03*
X143350000Y-112000000D03*
D28*
X142650000Y-111300000D03*
X142650000Y-110800000D03*
X142650000Y-110300000D03*
X142650000Y-109800000D03*
X142650000Y-109300000D03*
X142650000Y-108800000D03*
X142650000Y-108300000D03*
X142650000Y-107800000D03*
D27*
X143350000Y-107100000D03*
X143850000Y-107100000D03*
X144350000Y-107100000D03*
X144850000Y-107100000D03*
X145350000Y-107100000D03*
X145850000Y-107100000D03*
X146350000Y-107100000D03*
X146850000Y-107100000D03*
D28*
X147550000Y-107800000D03*
X147550000Y-108300000D03*
X147550000Y-108800000D03*
X147550000Y-109300000D03*
X147550000Y-109800000D03*
X147550000Y-110300000D03*
X147550000Y-110800000D03*
X147550000Y-111300000D03*
%TD*%
D11*
%TO.C,C119*%
X154655000Y-106950000D03*
X155345000Y-106950000D03*
%TD*%
D10*
%TO.C,C134*%
X155445000Y-111150000D03*
X154755000Y-111150000D03*
%TD*%
D12*
%TO.C,R27*%
X140950000Y-107055000D03*
X140950000Y-107745000D03*
%TD*%
D15*
%TO.C,U23*%
X155530000Y-107630000D03*
D16*
X155530000Y-108270000D03*
D17*
X154670000Y-108270000D03*
D18*
X154670000Y-107630000D03*
D19*
X155100000Y-107950000D03*
%TD*%
D11*
%TO.C,C166*%
X130955000Y-103750000D03*
X131645000Y-103750000D03*
%TD*%
D12*
%TO.C,C124*%
X156250000Y-107555000D03*
X156250000Y-108245000D03*
%TD*%
D11*
%TO.C,C153*%
X123555000Y-112500000D03*
X124245000Y-112500000D03*
%TD*%
D13*
%TO.C,C10*%
X100700000Y-111745000D03*
X100700000Y-111055000D03*
%TD*%
%TO.C,C123*%
X157350000Y-113695000D03*
X157350000Y-113005000D03*
%TD*%
D11*
%TO.C,C17*%
X101355000Y-110150000D03*
X102045000Y-110150000D03*
%TD*%
%TO.C,C151*%
X125455000Y-110200000D03*
X126145000Y-110200000D03*
%TD*%
D39*
%TO.C,J1*%
X102825000Y-103650000D03*
D40*
X101300000Y-105125000D03*
X101300000Y-102175000D03*
%TD*%
D10*
%TO.C,C97*%
X140595000Y-112750000D03*
X139905000Y-112750000D03*
%TD*%
D12*
%TO.C,R32*%
X157450000Y-110755000D03*
X157450000Y-111445000D03*
%TD*%
D11*
%TO.C,C27*%
X107755000Y-107650000D03*
X108445000Y-107650000D03*
%TD*%
D12*
%TO.C,C28*%
X102850000Y-113655000D03*
X102850000Y-114345000D03*
%TD*%
D10*
%TO.C,C6*%
X107045000Y-107650000D03*
X106355000Y-107650000D03*
%TD*%
D11*
%TO.C,C41*%
X113705000Y-105600000D03*
X114395000Y-105600000D03*
%TD*%
D10*
%TO.C,C9*%
X107195000Y-114650000D03*
X106505000Y-114650000D03*
%TD*%
D41*
%TO.C,D1*%
X101030000Y-107170000D03*
X101870000Y-107170000D03*
X101030000Y-106330000D03*
X101870000Y-106330000D03*
%TD*%
D11*
%TO.C,C29*%
X110655000Y-114550000D03*
X111345000Y-114550000D03*
%TD*%
D12*
%TO.C,R31*%
X156950000Y-107055000D03*
X156950000Y-107745000D03*
%TD*%
D11*
%TO.C,R3*%
X104805000Y-111150000D03*
X105495000Y-111150000D03*
%TD*%
%TO.C,R36*%
X130255000Y-114950000D03*
X130945000Y-114950000D03*
%TD*%
D42*
%TO.C,AE1*%
X115900000Y-113580000D03*
X115900000Y-110420000D03*
%TD*%
D11*
%TO.C,L16*%
X145405000Y-113000000D03*
X146095000Y-113000000D03*
%TD*%
%TO.C,C36*%
X112405000Y-111600000D03*
X113095000Y-111600000D03*
%TD*%
D13*
%TO.C,C136*%
X157450000Y-110045000D03*
X157450000Y-109355000D03*
%TD*%
%TO.C,C146*%
X123050000Y-114095000D03*
X123050000Y-113405000D03*
%TD*%
%TO.C,C16*%
X104800000Y-112545000D03*
X104800000Y-111855000D03*
%TD*%
D12*
%TO.C,R2*%
X101000000Y-113805000D03*
X101000000Y-114495000D03*
%TD*%
D10*
%TO.C,C22*%
X105345000Y-103250000D03*
X104655000Y-103250000D03*
%TD*%
D43*
%TO.C,AE4*%
X160270000Y-114350000D03*
X163430000Y-114350000D03*
%TD*%
%TO.C,AE3*%
X144270000Y-114350000D03*
X147430000Y-114350000D03*
%TD*%
D12*
%TO.C,R28*%
X141450000Y-110755000D03*
X141450000Y-111445000D03*
%TD*%
D11*
%TO.C,L24*%
X127305000Y-104150000D03*
X127995000Y-104150000D03*
%TD*%
D10*
%TO.C,L2*%
X114495000Y-112950000D03*
X113805000Y-112950000D03*
%TD*%
%TO.C,C104*%
X144695000Y-113000000D03*
X144005000Y-113000000D03*
%TD*%
D42*
%TO.C,AE6*%
X123750000Y-103970000D03*
X123750000Y-107130000D03*
%TD*%
D44*
%TO.C,J2*%
X109587500Y-105000000D03*
D40*
X108137500Y-106475000D03*
X108137500Y-103525000D03*
%TD*%
D11*
%TO.C,C130*%
X162805000Y-113000000D03*
X163495000Y-113000000D03*
%TD*%
D10*
%TO.C,L3*%
X108545000Y-114550000D03*
X107855000Y-114550000D03*
%TD*%
D12*
%TO.C,C137*%
X125800000Y-104955000D03*
X125800000Y-105645000D03*
%TD*%
D11*
%TO.C,C1*%
X113805000Y-112250000D03*
X114495000Y-112250000D03*
%TD*%
%TO.C,R30*%
X156955000Y-108450000D03*
X157645000Y-108450000D03*
%TD*%
%TO.C,C157*%
X129455000Y-104750000D03*
X130145000Y-104750000D03*
%TD*%
D10*
%TO.C,C122*%
X156595000Y-112750000D03*
X155905000Y-112750000D03*
%TD*%
M02*
