%TF.GenerationSoftware,KiCad,Pcbnew,10.0.2*%
%TF.CreationDate,2026-05-16T20:04:25+02:00*%
%TF.ProjectId,OpenRX-all,4f70656e-5258-42d6-916c-6c2e6b696361,rev?*%
%TF.SameCoordinates,Original*%
%TF.FileFunction,Paste,Top*%
%TF.FilePolarity,Positive*%
%FSLAX46Y46*%
G04 Gerber Fmt 4.6, Leading zero omitted, Abs format (unit mm)*
G04 Created by KiCad (PCBNEW 10.0.2) date 2026-05-16 20:04:25*
%MOMM*%
%LPD*%
G01*
G04 APERTURE LIST*
G04 Aperture macros list*
%AMRoundRect*
0 Rectangle with rounded corners*
0 $1 Rounding radius*
0 $2 $3 $4 $5 $6 $7 $8 $9 X,Y pos of 4 corners*
0 Add a 4 corners polygon primitive as box body*
4,1,4,$2,$3,$4,$5,$6,$7,$8,$9,$2,$3,0*
0 Add four circle primitives for the rounded corners*
1,1,$1+$1,$2,$3*
1,1,$1+$1,$4,$5*
1,1,$1+$1,$6,$7*
1,1,$1+$1,$8,$9*
0 Add four rect primitives between the rounded corners*
20,1,$1+$1,$2,$3,$4,$5,0*
20,1,$1+$1,$4,$5,$6,$7,0*
20,1,$1+$1,$6,$7,$8,$9,0*
20,1,$1+$1,$8,$9,$2,$3,0*%
%AMRotRect*
0 Rectangle, with rotation*
0 The origin of the aperture is its center*
0 $1 length*
0 $2 width*
0 $3 Rotation angle, in degrees counterclockwise*
0 Add horizontal line*
21,1,$1,$2,0,0,$3*%
G04 Aperture macros list end*
%ADD10RoundRect,0.079500X0.079500X0.100500X-0.079500X0.100500X-0.079500X-0.100500X0.079500X-0.100500X0*%
%ADD11RoundRect,0.079500X-0.100500X0.079500X-0.100500X-0.079500X0.100500X-0.079500X0.100500X0.079500X0*%
%ADD12R,0.195200X0.514400*%
%ADD13R,0.514400X0.195200*%
%ADD14R,1.388000X1.388000*%
%ADD15R,0.716000X0.548000*%
%ADD16RoundRect,0.079500X-0.079500X-0.100500X0.079500X-0.100500X0.079500X0.100500X-0.079500X0.100500X0*%
%ADD17RoundRect,0.107600X-0.132800X0.107600X-0.132800X-0.107600X0.132800X-0.107600X0.132800X0.107600X0*%
%ADD18R,0.280000X0.280000*%
%ADD19R,0.128000X0.329600*%
%ADD20R,0.329600X0.128000*%
%ADD21R,0.573200X0.464000*%
%ADD22RoundRect,0.107600X-0.107600X-0.132800X0.107600X-0.132800X0.107600X0.132800X-0.107600X0.132800X0*%
%ADD23R,0.338000X0.380000*%
%ADD24R,0.212000X0.212000*%
%ADD25RoundRect,0.167785X-0.332215X-0.332215X0.332215X-0.332215X0.332215X0.332215X-0.332215X0.332215X0*%
%ADD26RoundRect,0.042500X-0.273500X-0.042500X0.273500X-0.042500X0.273500X0.042500X-0.273500X0.042500X0*%
%ADD27RoundRect,0.042500X-0.042500X-0.273500X0.042500X-0.273500X0.042500X0.273500X-0.042500X0.273500X0*%
%ADD28RoundRect,0.200000X0.200000X-0.221000X0.200000X0.221000X-0.200000X0.221000X-0.200000X-0.221000X0*%
%ADD29RoundRect,0.200476X0.220524X-0.703524X0.220524X0.703524X-0.220524X0.703524X-0.220524X-0.703524X0*%
%ADD30RoundRect,0.079500X0.100500X-0.079500X0.100500X0.079500X-0.100500X0.079500X-0.100500X-0.079500X0*%
%ADD31O,0.632000X0.195200*%
%ADD32O,0.195200X0.632000*%
%ADD33RoundRect,0.329043X-0.616957X-0.616957X0.616957X-0.616957X0.616957X0.616957X-0.616957X0.616957X0*%
%ADD34R,0.212000X0.464000*%
%ADD35R,0.464000X0.212000*%
%ADD36RotRect,0.338000X0.380000X60.000000*%
%ADD37RotRect,0.212000X0.212000X60.000000*%
%ADD38R,0.338000X0.338000*%
%ADD39RotRect,0.338000X0.380000X45.000000*%
%ADD40RotRect,0.212000X0.212000X45.000000*%
%ADD41RoundRect,0.200000X-0.221000X-0.200000X0.221000X-0.200000X0.221000X0.200000X-0.221000X0.200000X0*%
%ADD42RoundRect,0.200476X-0.703524X-0.220524X0.703524X-0.220524X0.703524X0.220524X-0.703524X0.220524X0*%
%ADD43R,0.690800X0.690800*%
%ADD44RoundRect,0.113900X-0.113900X-0.134900X0.113900X-0.134900X0.113900X0.134900X-0.113900X0.134900X0*%
G04 APERTURE END LIST*
D10*
%TO.C,C24*%
X103175000Y-103650000D03*
X102485000Y-103650000D03*
%TD*%
D11*
%TO.C,C131*%
X159600000Y-106905000D03*
X159600000Y-107595000D03*
%TD*%
D12*
%TO.C,U7*%
X114250000Y-107000000D03*
X114750000Y-107000000D03*
X115250000Y-107000000D03*
X115750000Y-107000000D03*
D13*
X116450000Y-106300000D03*
X116450000Y-105800000D03*
X116450000Y-105300000D03*
X116450000Y-104800000D03*
D12*
X115750000Y-104100000D03*
X115250000Y-104100000D03*
X114750000Y-104100000D03*
X114250000Y-104100000D03*
D13*
X113550000Y-104800000D03*
X113550000Y-105300000D03*
X113550000Y-105800000D03*
X113550000Y-106300000D03*
D14*
X115000000Y-105550000D03*
%TD*%
D15*
%TO.C,OSC1*%
X108250000Y-110750000D03*
X108250000Y-112550000D03*
X109450000Y-112550000D03*
X109450000Y-110750000D03*
%TD*%
D16*
%TO.C,R10*%
X109505000Y-107650000D03*
X110195000Y-107650000D03*
%TD*%
D10*
%TO.C,C33*%
X110095000Y-109950000D03*
X109405000Y-109950000D03*
%TD*%
%TO.C,C20*%
X105395000Y-114250000D03*
X104705000Y-114250000D03*
%TD*%
%TO.C,C148*%
X123745000Y-109750000D03*
X123055000Y-109750000D03*
%TD*%
%TO.C,C149*%
X125445000Y-114650000D03*
X124755000Y-114650000D03*
%TD*%
D17*
%TO.C,C92*%
X138800000Y-107070000D03*
X138800000Y-108030000D03*
%TD*%
D18*
%TO.C,U8*%
X111710000Y-105190000D03*
X112090000Y-105190000D03*
X111710000Y-104810000D03*
X112090000Y-104810000D03*
D19*
X111400000Y-105930000D03*
X111900000Y-105930000D03*
X112400000Y-105930000D03*
D20*
X112830000Y-105500000D03*
X112830000Y-105000000D03*
X112830000Y-104500000D03*
D19*
X112400000Y-104070000D03*
X111900000Y-104070000D03*
X111400000Y-104070000D03*
D20*
X110970000Y-104500000D03*
X110970000Y-105000000D03*
X110970000Y-105500000D03*
%TD*%
D18*
%TO.C,U5*%
X104440000Y-103840000D03*
X104820000Y-103840000D03*
X104440000Y-103460000D03*
X104820000Y-103460000D03*
D19*
X104130000Y-104580000D03*
X104630000Y-104580000D03*
X105130000Y-104580000D03*
D20*
X105560000Y-104150000D03*
X105560000Y-103650000D03*
X105560000Y-103150000D03*
D19*
X105130000Y-102720000D03*
X104630000Y-102720000D03*
X104130000Y-102720000D03*
D20*
X103700000Y-103150000D03*
X103700000Y-103650000D03*
X103700000Y-104150000D03*
%TD*%
D11*
%TO.C,R40*%
X132050000Y-101455000D03*
X132050000Y-102145000D03*
%TD*%
D10*
%TO.C,C89*%
X147045000Y-111900000D03*
X146355000Y-111900000D03*
%TD*%
D21*
%TO.C,X4*%
X162900000Y-112800000D03*
X161800000Y-112800000D03*
X161800000Y-113600000D03*
X162900000Y-113600000D03*
%TD*%
D22*
%TO.C,C120*%
X159610000Y-110790000D03*
X160570000Y-110790000D03*
%TD*%
D17*
%TO.C,C11*%
X107600000Y-114070000D03*
X107600000Y-115030000D03*
%TD*%
D23*
%TO.C,FL6*%
X156970000Y-108900000D03*
D24*
X157550000Y-109200000D03*
D23*
X158130000Y-108900000D03*
D24*
X157550000Y-108600000D03*
%TD*%
D25*
%TO.C,U6*%
X112450000Y-111700000D03*
X112450000Y-113200000D03*
X113950000Y-111700000D03*
X113950000Y-113200000D03*
D26*
X110750000Y-110700000D03*
X110750000Y-111200000D03*
X110750000Y-111700000D03*
X110750000Y-112200000D03*
X110750000Y-112700000D03*
X110750000Y-113200000D03*
X110750000Y-113700000D03*
X110750000Y-114200000D03*
D27*
X111450000Y-114900000D03*
X111950000Y-114900000D03*
X112450000Y-114900000D03*
X112950000Y-114900000D03*
X113450000Y-114900000D03*
X113950000Y-114900000D03*
X114450000Y-114900000D03*
X114950000Y-114900000D03*
D26*
X115650000Y-114200000D03*
X115650000Y-113700000D03*
X115650000Y-113200000D03*
X115650000Y-112700000D03*
X115650000Y-112200000D03*
X115650000Y-111700000D03*
X115650000Y-111200000D03*
X115650000Y-110700000D03*
D27*
X114950000Y-110000000D03*
X114450000Y-110000000D03*
X113950000Y-110000000D03*
X113450000Y-110000000D03*
X112950000Y-110000000D03*
X112450000Y-110000000D03*
X111950000Y-110000000D03*
X111450000Y-110000000D03*
%TD*%
D28*
%TO.C,J6*%
X124850000Y-103525000D03*
D29*
X123375000Y-102000000D03*
X126325000Y-102000000D03*
%TD*%
D16*
%TO.C,R9*%
X109055000Y-113400000D03*
X109745000Y-113400000D03*
%TD*%
D17*
%TO.C,C100*%
X139750000Y-107070000D03*
X139750000Y-108030000D03*
%TD*%
D16*
%TO.C,C118*%
X159555000Y-112300000D03*
X160245000Y-112300000D03*
%TD*%
D30*
%TO.C,C108*%
X145650000Y-111895000D03*
X145650000Y-111205000D03*
%TD*%
D25*
%TO.C,U27*%
X127550000Y-110700000D03*
X127550000Y-112200000D03*
X129050000Y-110700000D03*
X129050000Y-112200000D03*
D26*
X125850000Y-109700000D03*
X125850000Y-110200000D03*
X125850000Y-110700000D03*
X125850000Y-111200000D03*
X125850000Y-112200000D03*
X125850000Y-112700000D03*
X125850000Y-113200000D03*
D27*
X126550000Y-113900000D03*
X127050000Y-113900000D03*
X127550000Y-113900000D03*
X128050000Y-113900000D03*
X128550000Y-113900000D03*
X129050000Y-113900000D03*
X129550000Y-113900000D03*
X130050000Y-113900000D03*
D26*
X130750000Y-112200000D03*
X130750000Y-111700000D03*
X130750000Y-111200000D03*
X130750000Y-110700000D03*
X130750000Y-110200000D03*
X130750000Y-109700000D03*
D27*
X130050000Y-109000000D03*
X129550000Y-109000000D03*
X129050000Y-109000000D03*
X128550000Y-109000000D03*
X128050000Y-109000000D03*
X127550000Y-109000000D03*
X127050000Y-109000000D03*
X126550000Y-109000000D03*
%TD*%
D10*
%TO.C,C159*%
X129745000Y-101850000D03*
X129055000Y-101850000D03*
%TD*%
D30*
%TO.C,C133*%
X161650000Y-111895000D03*
X161650000Y-111205000D03*
%TD*%
D31*
%TO.C,U24*%
X154750000Y-110800000D03*
X154750000Y-111300000D03*
X154750000Y-111800000D03*
X154750000Y-112300000D03*
X154750000Y-112800000D03*
X154750000Y-113300000D03*
D32*
X155500000Y-114050000D03*
X156000000Y-114050000D03*
X156500000Y-114050000D03*
X157000000Y-114050000D03*
X157500000Y-114050000D03*
X158000000Y-114050000D03*
D31*
X158750000Y-113300000D03*
X158750000Y-112800000D03*
X158750000Y-112300000D03*
X158750000Y-111800000D03*
X158750000Y-111300000D03*
X158750000Y-110810000D03*
D32*
X158000000Y-110050000D03*
X157500000Y-110050000D03*
X157000000Y-110050000D03*
X156500000Y-110050000D03*
X156000000Y-110050000D03*
X155500000Y-110050000D03*
D33*
X156750000Y-112060000D03*
%TD*%
D10*
%TO.C,C42*%
X114045000Y-103200000D03*
X113355000Y-103200000D03*
%TD*%
D16*
%TO.C,C116*%
X159255000Y-109950000D03*
X159945000Y-109950000D03*
%TD*%
D11*
%TO.C,L25*%
X132250000Y-109505000D03*
X132250000Y-110195000D03*
%TD*%
D25*
%TO.C,U3*%
X103850000Y-110050000D03*
X103850000Y-111550000D03*
X105350000Y-110050000D03*
X105350000Y-111550000D03*
D26*
X102150000Y-109050000D03*
X102150000Y-109550000D03*
X102150000Y-110050000D03*
X102150000Y-110550000D03*
X102150000Y-111050000D03*
X102150000Y-111550000D03*
X102150000Y-112050000D03*
X102150000Y-112550000D03*
D27*
X102850000Y-113250000D03*
X103350000Y-113250000D03*
X103850000Y-113250000D03*
X104350000Y-113250000D03*
X104850000Y-113250000D03*
X105350000Y-113250000D03*
X105850000Y-113250000D03*
X106350000Y-113250000D03*
D26*
X107050000Y-112550000D03*
X107050000Y-112050000D03*
X107050000Y-111550000D03*
X107050000Y-111050000D03*
X107050000Y-110550000D03*
X107050000Y-110050000D03*
X107050000Y-109550000D03*
X107050000Y-109050000D03*
D27*
X106350000Y-108350000D03*
X105850000Y-108350000D03*
X105350000Y-108350000D03*
X104850000Y-108350000D03*
X104350000Y-108350000D03*
X103850000Y-108350000D03*
X103350000Y-108350000D03*
X102850000Y-108350000D03*
%TD*%
D10*
%TO.C,C38*%
X113445000Y-115900000D03*
X112755000Y-115900000D03*
%TD*%
D11*
%TO.C,R38*%
X124850000Y-110455000D03*
X124850000Y-111145000D03*
%TD*%
D15*
%TO.C,OSC5*%
X124600000Y-113800000D03*
X124600000Y-112000000D03*
X123400000Y-112000000D03*
X123400000Y-113800000D03*
%TD*%
D10*
%TO.C,C143*%
X124145000Y-110500000D03*
X123455000Y-110500000D03*
%TD*%
%TO.C,C14*%
X101145000Y-109000000D03*
X100455000Y-109000000D03*
%TD*%
D30*
%TO.C,C113*%
X160950000Y-112895000D03*
X160950000Y-112205000D03*
%TD*%
D10*
%TO.C,C15*%
X101145000Y-109700000D03*
X100455000Y-109700000D03*
%TD*%
D30*
%TO.C,R39*%
X132250000Y-106695000D03*
X132250000Y-106005000D03*
%TD*%
D23*
%TO.C,FL1*%
X106370000Y-107250000D03*
D24*
X106950000Y-107550000D03*
D23*
X107530000Y-107250000D03*
D24*
X106950000Y-106950000D03*
%TD*%
D31*
%TO.C,U21*%
X138750000Y-110800000D03*
X138750000Y-111300000D03*
X138750000Y-111800000D03*
X138750000Y-112300000D03*
X138750000Y-112800000D03*
X138750000Y-113300000D03*
D32*
X139500000Y-114050000D03*
X140000000Y-114050000D03*
X140500000Y-114050000D03*
X141000000Y-114050000D03*
X141500000Y-114050000D03*
X142000000Y-114050000D03*
D31*
X142750000Y-113300000D03*
X142750000Y-112800000D03*
X142750000Y-112300000D03*
X142750000Y-111800000D03*
X142750000Y-111300000D03*
X142750000Y-110810000D03*
D32*
X142000000Y-110050000D03*
X141500000Y-110050000D03*
X141000000Y-110050000D03*
X140500000Y-110050000D03*
X140000000Y-110050000D03*
X139500000Y-110050000D03*
D33*
X140750000Y-112060000D03*
%TD*%
D11*
%TO.C,C87*%
X147750000Y-113305000D03*
X147750000Y-113995000D03*
%TD*%
D16*
%TO.C,C37*%
X114905000Y-115900000D03*
X115595000Y-115900000D03*
%TD*%
D12*
%TO.C,U28*%
X129900000Y-105550000D03*
X130400000Y-105550000D03*
X130900000Y-105550000D03*
X131400000Y-105550000D03*
D13*
X132100000Y-104850000D03*
X132100000Y-104350000D03*
X132100000Y-103850000D03*
X132100000Y-103350000D03*
D12*
X131400000Y-102650000D03*
X130900000Y-102650000D03*
X130400000Y-102650000D03*
X129900000Y-102650000D03*
D13*
X129200000Y-103350000D03*
X129200000Y-103850000D03*
X129200000Y-104350000D03*
X129200000Y-104850000D03*
D14*
X130650000Y-104100000D03*
%TD*%
D10*
%TO.C,C156*%
X128095000Y-114900000D03*
X127405000Y-114900000D03*
%TD*%
D11*
%TO.C,C90*%
X142900000Y-106905000D03*
X142900000Y-107595000D03*
%TD*%
D17*
%TO.C,C125*%
X155750000Y-107070000D03*
X155750000Y-108030000D03*
%TD*%
D34*
%TO.C,T5*%
X126700000Y-107800000D03*
X127200000Y-107800000D03*
X127700000Y-107800000D03*
X128200000Y-107800000D03*
D35*
X128450000Y-107050000D03*
D34*
X128200000Y-106300000D03*
X127700000Y-106300000D03*
X127200000Y-106300000D03*
X126700000Y-106300000D03*
D35*
X126450000Y-107050000D03*
%TD*%
D10*
%TO.C,C23*%
X106795000Y-102100000D03*
X106105000Y-102100000D03*
%TD*%
%TO.C,R29*%
X155795000Y-108900000D03*
X155105000Y-108900000D03*
%TD*%
D36*
%TO.C,FL2*%
X114760000Y-108902295D03*
D37*
X115309808Y-108550000D03*
D36*
X115340000Y-107897705D03*
D37*
X114790192Y-108250000D03*
%TD*%
D11*
%TO.C,C115*%
X158900000Y-106905000D03*
X158900000Y-107595000D03*
%TD*%
D16*
%TO.C,R33*%
X124955000Y-107000000D03*
X125645000Y-107000000D03*
%TD*%
D23*
%TO.C,FL5*%
X140970000Y-108900000D03*
D24*
X141550000Y-109200000D03*
D23*
X142130000Y-108900000D03*
D24*
X141550000Y-108600000D03*
%TD*%
D38*
%TO.C,D5*%
X123080000Y-108180000D03*
X123920000Y-108180000D03*
X123080000Y-109020000D03*
X123920000Y-109020000D03*
%TD*%
D10*
%TO.C,L17*%
X144245000Y-111600000D03*
X143555000Y-111600000D03*
%TD*%
D39*
%TO.C,FL7*%
X129939878Y-107560122D03*
D40*
X130562132Y-107362132D03*
D39*
X130760122Y-106739878D03*
D40*
X130137868Y-106937868D03*
%TD*%
D10*
%TO.C,C132*%
X163745000Y-111200000D03*
X163055000Y-111200000D03*
%TD*%
D38*
%TO.C,D3*%
X140780000Y-107030000D03*
X141620000Y-107030000D03*
X140780000Y-107870000D03*
X141620000Y-107870000D03*
%TD*%
D10*
%TO.C,C158*%
X128395000Y-102950000D03*
X127705000Y-102950000D03*
%TD*%
D41*
%TO.C,J5*%
X144725000Y-108700000D03*
D42*
X146250000Y-107225000D03*
X146250000Y-110175000D03*
%TD*%
D43*
%TO.C,AE5*%
X162870000Y-107280000D03*
X160930000Y-107280000D03*
X160930000Y-109220000D03*
X162870000Y-109220000D03*
%TD*%
D30*
%TO.C,R11*%
X116600000Y-108145000D03*
X116600000Y-107455000D03*
%TD*%
D16*
%TO.C,C91*%
X143555000Y-109950000D03*
X144245000Y-109950000D03*
%TD*%
D34*
%TO.C,T2*%
X111250000Y-108450000D03*
X111750000Y-108450000D03*
X112250000Y-108450000D03*
X112750000Y-108450000D03*
D35*
X113000000Y-107700000D03*
D34*
X112750000Y-106950000D03*
X112250000Y-106950000D03*
X111750000Y-106950000D03*
X111250000Y-106950000D03*
D35*
X111000000Y-107700000D03*
%TD*%
D17*
%TO.C,C147*%
X132100000Y-112420000D03*
X132100000Y-113380000D03*
%TD*%
D11*
%TO.C,C140*%
X132250000Y-107405000D03*
X132250000Y-108095000D03*
%TD*%
D30*
%TO.C,C88*%
X144950000Y-112895000D03*
X144950000Y-112205000D03*
%TD*%
D11*
%TO.C,C2*%
X100850000Y-106905000D03*
X100850000Y-107595000D03*
%TD*%
D10*
%TO.C,C161*%
X132095000Y-108800000D03*
X131405000Y-108800000D03*
%TD*%
D11*
%TO.C,C145*%
X132250000Y-110905000D03*
X132250000Y-111595000D03*
%TD*%
D10*
%TO.C,C19*%
X101495000Y-108300000D03*
X100805000Y-108300000D03*
%TD*%
D30*
%TO.C,L15*%
X147750000Y-112595000D03*
X147750000Y-111905000D03*
%TD*%
D22*
%TO.C,C95*%
X143610000Y-110790000D03*
X144570000Y-110790000D03*
%TD*%
D16*
%TO.C,C93*%
X143555000Y-112300000D03*
X144245000Y-112300000D03*
%TD*%
D11*
%TO.C,C162*%
X131550000Y-107405000D03*
X131550000Y-108095000D03*
%TD*%
D12*
%TO.C,U4*%
X107200000Y-106350000D03*
X107700000Y-106350000D03*
X108200000Y-106350000D03*
X108700000Y-106350000D03*
D13*
X109400000Y-105650000D03*
X109400000Y-105150000D03*
X109400000Y-104650000D03*
X109400000Y-104150000D03*
D12*
X108700000Y-103450000D03*
X108200000Y-103450000D03*
X107700000Y-103450000D03*
X107200000Y-103450000D03*
D13*
X106500000Y-104150000D03*
X106500000Y-104650000D03*
X106500000Y-105150000D03*
X106500000Y-105650000D03*
D14*
X107950000Y-104900000D03*
%TD*%
D10*
%TO.C,C34*%
X108390000Y-113400000D03*
X107700000Y-113400000D03*
%TD*%
D16*
%TO.C,C13*%
X108055000Y-109950000D03*
X108745000Y-109950000D03*
%TD*%
D30*
%TO.C,L19*%
X163750000Y-112595000D03*
X163750000Y-111905000D03*
%TD*%
D11*
%TO.C,R12*%
X116600000Y-102955000D03*
X116600000Y-103645000D03*
%TD*%
%TO.C,C39*%
X108700000Y-108505000D03*
X108700000Y-109195000D03*
%TD*%
D10*
%TO.C,R25*%
X139795000Y-108900000D03*
X139105000Y-108900000D03*
%TD*%
D11*
%TO.C,C138*%
X124850000Y-108705000D03*
X124850000Y-109395000D03*
%TD*%
D44*
%TO.C,L7*%
X109515000Y-108500000D03*
X110485000Y-108500000D03*
%TD*%
D11*
%TO.C,C106*%
X143600000Y-106905000D03*
X143600000Y-107595000D03*
%TD*%
%TO.C,R7*%
X110600000Y-102305000D03*
X110600000Y-102995000D03*
%TD*%
D10*
%TO.C,C160*%
X125995000Y-104500000D03*
X125305000Y-104500000D03*
%TD*%
D44*
%TO.C,L27*%
X124965000Y-107850000D03*
X125935000Y-107850000D03*
%TD*%
D16*
%TO.C,R1*%
X101655000Y-106350000D03*
X102345000Y-106350000D03*
%TD*%
D10*
%TO.C,C114*%
X163045000Y-111900000D03*
X162355000Y-111900000D03*
%TD*%
D18*
%TO.C,U29*%
X127360000Y-104690000D03*
X127740000Y-104690000D03*
X127360000Y-104310000D03*
X127740000Y-104310000D03*
D19*
X127050000Y-105430000D03*
X127550000Y-105430000D03*
X128050000Y-105430000D03*
D20*
X128480000Y-105000000D03*
X128480000Y-104500000D03*
X128480000Y-104000000D03*
D19*
X128050000Y-103570000D03*
X127550000Y-103570000D03*
X127050000Y-103570000D03*
D20*
X126620000Y-104000000D03*
X126620000Y-104500000D03*
X126620000Y-105000000D03*
%TD*%
D11*
%TO.C,C7*%
X101150000Y-112205000D03*
X101150000Y-112895000D03*
%TD*%
D10*
%TO.C,C107*%
X147745000Y-111200000D03*
X147055000Y-111200000D03*
%TD*%
D21*
%TO.C,X3*%
X146900000Y-112800000D03*
X145800000Y-112800000D03*
X145800000Y-113600000D03*
X146900000Y-113600000D03*
%TD*%
D30*
%TO.C,R6*%
X101150000Y-111495000D03*
X101150000Y-110805000D03*
%TD*%
D38*
%TO.C,D4*%
X156780000Y-107030000D03*
X157620000Y-107030000D03*
X156780000Y-107870000D03*
X157620000Y-107870000D03*
%TD*%
D10*
%TO.C,L21*%
X160245000Y-111600000D03*
X159555000Y-111600000D03*
%TD*%
D11*
%TO.C,C112*%
X163750000Y-113305000D03*
X163750000Y-113995000D03*
%TD*%
D44*
%TO.C,L5*%
X101665000Y-107200000D03*
X102635000Y-107200000D03*
%TD*%
D17*
%TO.C,C117*%
X154800000Y-107070000D03*
X154800000Y-108030000D03*
%TD*%
D11*
%TO.C,R8*%
X109900000Y-102755000D03*
X109900000Y-103445000D03*
%TD*%
D34*
%TO.C,T1*%
X103400000Y-107150000D03*
X103900000Y-107150000D03*
X104400000Y-107150000D03*
X104900000Y-107150000D03*
D35*
X105150000Y-106400000D03*
D34*
X104900000Y-105650000D03*
X104400000Y-105650000D03*
X103900000Y-105650000D03*
X103400000Y-105650000D03*
D35*
X103150000Y-106400000D03*
%TD*%
M02*
