M48
; DRILL file KiCad 10.0.2 date 2026-05-16T20:04:31
; FORMAT={-:-/ absolute / metric / decimal}
; #@! TF.CreationDate,2026-05-16T20:04:31+02:00
; #@! TF.GenerationSoftware,Kicad,Pcbnew,10.0.2
; #@! TF.FileFunction,Plated,1,6,PTH
FMAT,2
METRIC
; #@! TA.AperFunction,Plated,PTH,ViaDrill
T1C0.200
; #@! TA.AperFunction,Plated,PTH,ComponentDrill
T2C0.400
; #@! TA.AperFunction,Plated,PTH,ComponentDrill
T3C0.500
%
G90
G05
T1
X100.425Y-110.716
X100.425Y-109.3
X100.65Y-111.75
X100.676Y-112.544
X100.951Y-114.503
X101.61Y-113.45
X101.635Y-109.465
X101.939Y-107.844
X101.985Y-103.903
X102.142Y-103.002
X102.168Y-112.99
X102.253Y-114.225
X102.287Y-104.404
X102.41Y-108.108
X102.58Y-105.13
X102.6Y-103.65
X102.723Y-115.265
X102.872Y-111.928
X102.9Y-102.835
X102.9Y-114.235
X102.92Y-112.53
X102.935Y-109.65
X103.03Y-109.047
X103.15Y-106.4
X103.254Y-104.455
X103.6Y-109.75
X103.634Y-103.062
X103.65Y-102.56
X103.912Y-114.0
X103.95Y-111.05
X103.95Y-111.55
X104.232Y-103.79
X104.25Y-101.75
X104.4Y-105.65
X104.63Y-104.58
X104.65Y-102.6
X104.75Y-109.135
X104.8Y-111.88
X104.8Y-112.535
X105.012Y-101.721
X105.15Y-106.4
X105.2Y-110.55
X105.29Y-109.135
X105.39Y-107.635
X105.41Y-113.467
X105.538Y-103.147
X105.55Y-101.721
X105.55Y-104.15
X105.744Y-103.646
X105.785Y-112.383
X105.8Y-105.643
X106.15Y-102.65
X106.265Y-111.382
X106.35Y-105.15
X106.36Y-110.85
X106.378Y-109.79
X106.38Y-112.293
X106.55Y-103.6
X106.79Y-108.153
X106.79Y-112.995
X106.84Y-106.77
X106.85Y-102.65
X107.15Y-105.35
X107.175Y-113.374
X107.188Y-111.057
X107.207Y-109.991
X107.285Y-110.525
X107.285Y-111.61
X107.3Y-103.45
X107.35Y-101.721
X107.35Y-102.5
X107.4Y-108.1
X107.45Y-104.45
X107.6Y-105.05
X107.6Y-109.435
X107.65Y-106.04
X107.7Y-108.5
X107.765Y-112.1
X107.9Y-104.1
X107.972Y-114.454
X108.08Y-110.35
X108.122Y-101.919
X108.15Y-104.55
X108.15Y-109.435
X108.15Y-110.9
X108.15Y-111.4
X108.205Y-106.24
X108.35Y-111.9
X108.42Y-107.65
X108.6Y-102.65
X108.7Y-111.35
X108.736Y-113.856
X108.8Y-104.7
X108.9Y-103.65
X108.9Y-109.4
X108.95Y-107.9
X109.0Y-111.85
X109.175Y-112.825
X109.269Y-113.968
X109.276Y-109.989
X109.35Y-104.1
X109.661Y-106.105
X109.7Y-111.8
X109.9Y-102.8
X110.1Y-115.3
X110.145Y-109.365
X110.164Y-106.98
X110.401Y-103.662
X110.45Y-104.2
X110.522Y-105.585
X110.6Y-116.5
X110.685Y-109.365
X110.698Y-111.188
X110.95Y-107.7
X110.972Y-104.485
X110.975Y-105.025
X110.985Y-103.95
X110.994Y-105.636
X111.095Y-103.427
X111.389Y-115.065
X111.461Y-113.301
X111.464Y-112.5
X111.481Y-102.97
X111.5Y-115.65
X111.55Y-104.677
X111.6Y-105.4
X111.815Y-104.0
X111.9Y-105.95
X112.016Y-114.493
X112.12Y-102.822
X112.15Y-113.5
X112.169Y-103.578
X112.25Y-106.95
X112.3Y-102.3
X112.48Y-110.785
X112.648Y-114.27
X112.65Y-102.822
X112.82Y-104.4
X112.9Y-115.2
X112.906Y-104.958
X112.909Y-105.498
X112.95Y-113.55
X113.05Y-107.7
X113.07Y-113.0
X113.075Y-112.4
X113.138Y-102.693
X113.185Y-111.3
X113.215Y-108.3
X113.25Y-103.715
X113.3Y-110.8
X113.55Y-106.3
X113.85Y-108.3
X113.85Y-110.75
X113.9Y-103.715
X113.95Y-114.9
X113.98Y-108.89
X114.05Y-113.55
X114.164Y-102.685
X114.37Y-105.6
X114.4Y-111.35
X114.45Y-112.25
X114.498Y-103.578
X114.7Y-105.0
X114.7Y-108.2
X114.702Y-102.827
X114.75Y-104.1
X114.89Y-107.52
X114.957Y-115.615
X115.015Y-109.605
X115.017Y-112.225
X115.05Y-106.1
X115.116Y-111.694
X115.274Y-103.073
X115.4Y-108.55
X115.401Y-111.235
X115.421Y-115.338
X115.45Y-105.65
X115.45Y-114.8
X115.5Y-105.0
X115.555Y-109.605
X115.559Y-103.477
X115.75Y-104.05
X115.855Y-108.87
X115.924Y-107.643
X116.05Y-104.8
X116.05Y-105.35
X116.15Y-116.45
X116.35Y-115.15
X116.45Y-105.8
X116.575Y-102.98
X116.575Y-103.62
X116.575Y-108.985
X123.08Y-109.75
X123.1Y-101.65
X123.1Y-102.4
X123.15Y-102.9
X123.26Y-112.8
X123.26Y-114.95
X123.29Y-111.335
X123.45Y-101.125
X123.45Y-102.0
X123.875Y-108.225
X123.94Y-109.01
X124.0Y-115.25
X124.292Y-113.139
X124.3Y-109.95
X124.335Y-111.025
X124.804Y-104.729
X124.883Y-113.132
X124.965Y-108.35
X125.135Y-112.655
X125.15Y-105.45
X125.24Y-109.16
X125.3Y-115.35
X125.44Y-113.79
X125.5Y-106.45
X125.53Y-110.2
X125.75Y-103.4
X125.85Y-111.7
X125.864Y-103.985
X126.0Y-108.6
X126.025Y-101.2
X126.1Y-102.3
X126.149Y-109.508
X126.15Y-105.7
X126.27Y-114.65
X126.316Y-115.188
X126.45Y-107.05
X126.5Y-101.471
X126.6Y-103.7
X126.65Y-102.95
X126.745Y-113.124
X126.85Y-115.1
X126.9Y-101.15
X126.959Y-110.11
X127.043Y-102.228
X127.35Y-101.471
X127.35Y-112.55
X127.4Y-107.05
X127.5Y-115.75
X127.55Y-103.57
X127.6Y-103.0
X127.85Y-102.5
X128.0Y-113.165
X128.05Y-113.9
X128.1Y-101.471
X128.353Y-102.246
X128.37Y-102.95
X128.4Y-107.05
X128.48Y-104.51
X128.5Y-110.15
X128.71Y-112.75
X128.779Y-101.37
X128.85Y-109.75
X128.918Y-107.52
X128.99Y-108.079
X128.99Y-113.8
X129.018Y-102.365
X129.1Y-113.165
X129.314Y-104.805
X129.35Y-106.85
X129.445Y-105.736
X129.45Y-102.85
X129.45Y-110.5
X129.55Y-101.336
X129.696Y-114.479
X129.9Y-103.35
X130.2Y-115.85
X130.224Y-112.59
X130.244Y-108.307
X130.25Y-103.95
X130.25Y-104.65
X130.28Y-114.95
X130.35Y-101.45
X130.35Y-102.4
X130.376Y-113.164
X130.4Y-105.55
X130.531Y-106.153
X130.767Y-111.189
X130.837Y-113.446
X130.85Y-114.15
X130.92Y-114.95
X130.927Y-107.565
X130.98Y-101.664
X131.246Y-113.094
X131.25Y-103.25
X131.304Y-102.148
X131.4Y-107.259
X131.465Y-111.704
X131.635Y-109.469
X131.638Y-113.871
X131.645Y-110.015
X131.65Y-111.053
X131.795Y-110.533
X131.89Y-105.374
X131.9Y-115.05
X131.955Y-108.568
X132.001Y-104.846
X132.05Y-101.48
X132.1Y-103.75
X132.185Y-112.42
X132.185Y-113.38
X132.225Y-103.25
X132.225Y-104.305
X132.225Y-111.58
X138.67Y-107.39
X138.75Y-110.45
X138.75Y-111.3
X138.787Y-112.284
X139.1Y-107.95
X139.285Y-111.9
X139.465Y-113.286
X139.509Y-115.383
X139.53Y-108.27
X139.585Y-109.343
X139.75Y-114.9
X139.82Y-107.37
X139.93Y-112.75
X140.045Y-109.9
X140.24Y-107.2
X140.36Y-108.58
X140.65Y-114.95
X141.1Y-113.15
X141.15Y-109.5
X141.43Y-113.642
X141.65Y-107.08
X141.982Y-110.046
X142.0Y-113.85
X142.036Y-110.834
X142.127Y-107.395
X142.57Y-107.76
X142.65Y-113.9
X142.74Y-109.79
X142.75Y-111.3
X142.75Y-112.3
X142.825Y-108.24
X142.867Y-112.827
X143.2Y-115.95
X143.25Y-110.4
X143.26Y-114.38
X143.365Y-109.302
X143.6Y-106.93
X143.64Y-108.25
X143.95Y-109.35
X144.03Y-113.0
X144.06Y-107.84
X144.22Y-109.95
X144.3Y-110.35
X144.7Y-109.8
X144.89Y-111.385
X144.951Y-107.813
X145.3Y-110.55
X145.7Y-114.45
X145.7Y-115.95
X145.79Y-111.9
X145.8Y-113.6
X145.9Y-109.95
X146.4Y-114.7
X146.48Y-113.452
X146.5Y-110.45
X147.575Y-109.279
X147.701Y-109.804
X147.72Y-111.2
X147.725Y-108.74
X147.725Y-111.93
X154.67Y-107.39
X154.75Y-110.45
X154.75Y-111.3
X154.787Y-112.284
X155.1Y-107.95
X155.285Y-111.9
X155.465Y-113.286
X155.509Y-115.383
X155.53Y-108.27
X155.573Y-109.341
X155.75Y-114.9
X155.82Y-107.37
X155.93Y-112.75
X156.045Y-109.9
X156.24Y-107.2
X156.4Y-108.59
X156.65Y-114.95
X157.1Y-113.15
X157.296Y-109.448
X157.43Y-113.642
X157.65Y-107.08
X157.982Y-110.046
X158.0Y-113.85
X158.036Y-110.834
X158.127Y-107.395
X158.407Y-107.86
X158.65Y-113.9
X158.73Y-109.8
X158.75Y-111.3
X158.75Y-112.3
X158.825Y-108.24
X158.867Y-112.827
X159.145Y-115.995
X159.25Y-110.4
X159.26Y-114.38
X159.37Y-109.43
X159.55Y-107.95
X159.6Y-106.93
X159.67Y-108.61
X159.95Y-109.65
X160.03Y-113.0
X160.3Y-110.35
X160.88Y-111.385
X160.916Y-107.815
X161.3Y-110.55
X161.7Y-114.45
X161.7Y-115.95
X161.79Y-111.9
X161.8Y-113.6
X161.9Y-109.95
X162.4Y-114.7
X162.48Y-113.452
X162.5Y-110.45
X162.6Y-109.2
X162.834Y-107.815
X163.574Y-109.838
X163.62Y-108.76
X163.62Y-109.3
X163.72Y-111.2
X163.725Y-111.93
T2
X100.8Y-116.3
X100.8Y-117.7
X101.8Y-116.3
X101.8Y-117.7
X103.34Y-116.3
X103.34Y-117.7
X104.34Y-116.3
X104.34Y-117.7
X105.88Y-116.3
X105.88Y-117.7
X106.88Y-116.3
X106.88Y-117.7
X108.42Y-116.3
X108.42Y-117.7
X109.42Y-116.3
X109.42Y-117.7
X123.34Y-116.3
X123.34Y-117.7
X124.34Y-116.3
X124.34Y-117.7
X125.88Y-116.3
X125.88Y-117.7
X126.88Y-116.3
X126.88Y-117.7
X128.42Y-116.3
X128.42Y-117.7
X129.42Y-116.3
X129.42Y-117.7
X130.96Y-116.3
X130.96Y-117.7
X131.96Y-116.3
X131.96Y-117.7
X138.834Y-116.3
X138.834Y-117.7
X139.834Y-116.3
X139.834Y-117.7
X141.374Y-116.3
X141.374Y-117.7
X142.374Y-116.3
X142.374Y-117.7
X143.92Y-116.3
X143.92Y-117.7
X144.92Y-116.3
X144.92Y-117.7
X146.46Y-116.3
X146.46Y-117.7
X147.46Y-116.3
X147.46Y-117.7
X154.834Y-116.3
X154.834Y-117.7
X155.834Y-116.3
X155.834Y-117.7
X157.374Y-116.3
X157.374Y-117.7
X158.374Y-116.3
X158.374Y-117.7
X159.92Y-116.3
X159.92Y-117.7
X160.92Y-116.3
X160.92Y-117.7
X162.46Y-116.3
X162.46Y-117.7
X163.46Y-116.3
X163.46Y-117.7
T3
X101.3Y-117.0
X103.84Y-117.0
X106.38Y-117.0
X108.92Y-117.0
X123.84Y-117.0
X126.38Y-117.0
X128.92Y-117.0
X131.46Y-117.0
X139.334Y-117.0
X141.874Y-117.0
X144.42Y-117.0
X146.96Y-117.0
X155.334Y-117.0
X157.874Y-117.0
X160.42Y-117.0
X162.96Y-117.0
M30
